<?xml version="1.0" encoding="UTF-8"?>
<svg id="_レイヤー_2" data-name="レイヤー 2" xmlns="http://www.w3.org/2000/svg" viewBox="0 0 70.6 67.62">
  <defs>
    <style>
      .cls-1 {
        stroke: #595757;
        stroke-width: 1.21px;
      }

      .cls-1, .cls-2 {
        stroke-miterlimit: 10;
      }

      .cls-1, .cls-2, .cls-3 {
        fill: none;
      }

      .cls-2 {
        stroke-width: .22px;
      }

      .cls-2, .cls-3 {
        stroke: #e67057;
      }

      .cls-4 {
        fill: #d9ae5c;
      }

      .cls-5 {
        fill: #e67057;
      }

      .cls-3 {
        stroke-linecap: round;
        stroke-linejoin: round;
        stroke-width: 1.74px;
      }

      .cls-6 {
        fill: #fff;
      }
    </style>
  </defs>
  <g id="_menu" data-name="
menu">
    <g>
      <circle class="cls-4" cx="38.9" cy="35.93" r="31.7"/>
      <circle class="cls-6" cx="32.3" cy="32.3" r="31.7"/>
      <g>
        <path class="cls-1" d="M44.64,61.51c-3.79,1.6-7.96,2.49-12.34,2.49s-8.55-.89-12.34-2.49-7.21-3.93-10.08-6.79c-2.87-2.87-5.19-6.28-6.79-10.08-1.6-3.79-2.49-7.96-2.49-12.34s.89-8.55,2.49-12.34c1.6-3.79,3.93-7.21,6.79-10.08"/>
        <path class="cls-1" d="M19.96,3.09c3.79-1.6,7.96-2.49,12.34-2.49s8.55.89,12.34,2.49c3.79,1.6,7.21,3.93,10.08,6.79,2.87,2.87,5.19,6.28,6.79,10.08,1.6,3.79,2.49,7.96,2.49,12.34s-.89,8.55-2.49,12.34c-1.6,3.79-3.93,7.21-6.79,10.08"/>
      </g>
      <g>
        <path class="cls-5" d="M19.8,20.36c0-.22-.19-.4-.41-.38l-4.14.38c-.94.1-1.68.87-1.68,1.85v6.19c0,.94.73,1.75,1.68,1.85l4.14.38c.22.02.41-.15.41-.38v-9.91Z"/>
        <path class="cls-5" d="M31.21,13.27l-8.25,6.19c-.27.22-.42.55-.42.89v9.93c0,.35.16.67.42.89l8.25,6.19c.66.56,1.68.07,1.68-.8V14.07c-.04-.87-1.01-1.36-1.68-.8Z"/>
        <g>
          <g>
            <path class="cls-5" d="M28.13,42.95c.69,0,1.32.1,1.89.28.57.19,1.06.46,1.47.82.41.36.73.79.96,1.32.23.52.34,1.11.34,1.76s-.11,1.24-.34,1.76c-.23.52-.55.96-.96,1.32-.41.36-.9.63-1.47.82-.57.19-1.2.29-1.89.29s-1.32-.1-1.89-.29c-.57-.19-1.06-.46-1.47-.82-.41-.36-.73-.79-.96-1.32-.23-.52-.34-1.11-.34-1.76s.11-1.24.34-1.76c.23-.52.55-.96.96-1.32.41-.36.9-.63,1.47-.82.57-.19,1.2-.28,1.89-.28ZM28.13,43.39c-.5,0-.94.1-1.3.3-.37.2-.67.48-.91.82-.24.35-.41.75-.53,1.19s-.17.92-.17,1.42.06.97.17,1.42c.11.45.29.85.53,1.2.24.35.54.62.91.82.37.2.8.3,1.3.3s.94-.1,1.3-.3c.37-.2.67-.48.91-.82.24-.35.41-.75.53-1.2.11-.45.17-.93.17-1.42s-.06-.98-.17-1.42c-.11-.45-.29-.85-.53-1.19-.24-.35-.54-.62-.91-.82-.37-.2-.8-.3-1.3-.3Z"/>
            <path class="cls-5" d="M34.07,50.83c.38-.06.68-.12.9-.18.22-.06.38-.16.5-.3s.19-.31.22-.53.05-.51.05-.87l.05-4.72c-.1-.12-.22-.23-.36-.32-.13-.09-.27-.16-.42-.22-.15-.06-.29-.11-.45-.16-.15-.04-.31-.09-.46-.13v-.29c.21.02.42.03.64.05.21.02.43.02.64.02.56,0,1.11-.02,1.65-.07.81,1,1.63,1.98,2.46,2.93.83.95,1.63,1.94,2.4,2.97h.02v-.98c0-.4,0-.81-.02-1.23-.01-.42-.03-.84-.05-1.24-.02-.4-.06-.74-.11-1.01-.03-.21-.09-.38-.16-.52s-.18-.24-.3-.33c-.12-.08-.26-.15-.42-.19-.16-.04-.33-.08-.53-.12v-.29c.28.02.57.03.85.05.29.02.57.02.86.02.57,0,1.13-.02,1.69-.07v.29c-.32.02-.57.06-.75.13s-.33.19-.42.36-.15.4-.18.69c-.03.29-.04.65-.04,1.1v5.57h-.72c-.24-.37-.52-.77-.82-1.19-.31-.42-.63-.84-.96-1.27-.34-.42-.68-.84-1.02-1.26s-.67-.8-.99-1.16c-.32-.36-.61-.7-.87-1-.27-.3-.49-.55-.68-.75v4.11c0,.41.02.74.05.99.03.25.1.44.21.59.11.15.27.25.48.32.21.07.49.13.85.19v.29c-.3-.02-.59-.03-.89-.04-.29,0-.59-.01-.89-.01-.34,0-.67,0-.99.01-.32,0-.66.02-.99.04v-.29Z"/>
          </g>
          <g>
            <path class="cls-2" d="M28.13,42.95c.69,0,1.32.1,1.89.28.57.19,1.06.46,1.47.82.41.36.73.79.96,1.32.23.52.34,1.11.34,1.76s-.11,1.24-.34,1.76c-.23.52-.55.96-.96,1.32-.41.36-.9.63-1.47.82-.57.19-1.2.29-1.89.29s-1.32-.1-1.89-.29c-.57-.19-1.06-.46-1.47-.82-.41-.36-.73-.79-.96-1.32-.23-.52-.34-1.11-.34-1.76s.11-1.24.34-1.76c.23-.52.55-.96.96-1.32.41-.36.9-.63,1.47-.82.57-.19,1.2-.28,1.89-.28ZM28.13,43.39c-.5,0-.94.1-1.3.3-.37.2-.67.48-.91.82-.24.35-.41.75-.53,1.19s-.17.92-.17,1.42.06.97.17,1.42c.11.45.29.85.53,1.2.24.35.54.62.91.82.37.2.8.3,1.3.3s.94-.1,1.3-.3c.37-.2.67-.48.91-.82.24-.35.41-.75.53-1.2.11-.45.17-.93.17-1.42s-.06-.98-.17-1.42c-.11-.45-.29-.85-.53-1.19-.24-.35-.54-.62-.91-.82-.37-.2-.8-.3-1.3-.3Z"/>
            <path class="cls-2" d="M34.07,50.83c.38-.06.68-.12.9-.18.22-.06.38-.16.5-.3s.19-.31.22-.53.05-.51.05-.87l.05-4.72c-.1-.12-.22-.23-.36-.32-.13-.09-.27-.16-.42-.22-.15-.06-.29-.11-.45-.16-.15-.04-.31-.09-.46-.13v-.29c.21.02.42.03.64.05.21.02.43.02.64.02.56,0,1.11-.02,1.65-.07.81,1,1.63,1.98,2.46,2.93.83.95,1.63,1.94,2.4,2.97h.02v-.98c0-.4,0-.81-.02-1.23-.01-.42-.03-.84-.05-1.24-.02-.4-.06-.74-.11-1.01-.03-.21-.09-.38-.16-.52s-.18-.24-.3-.33c-.12-.08-.26-.15-.42-.19-.16-.04-.33-.08-.53-.12v-.29c.28.02.57.03.85.05.29.02.57.02.86.02.57,0,1.13-.02,1.69-.07v.29c-.32.02-.57.06-.75.13s-.33.19-.42.36-.15.4-.18.69c-.03.29-.04.65-.04,1.1v5.57h-.72c-.24-.37-.52-.77-.82-1.19-.31-.42-.63-.84-.96-1.27-.34-.42-.68-.84-1.02-1.26s-.67-.8-.99-1.16c-.32-.36-.61-.7-.87-1-.27-.3-.49-.55-.68-.75v4.11c0,.41.02.74.05.99.03.25.1.44.21.59.11.15.27.25.48.32.21.07.49.13.85.19v.29c-.3-.02-.59-.03-.89-.04-.29,0-.59-.01-.89-.01-.34,0-.67,0-.99.01-.32,0-.66.02-.99.04v-.29Z"/>
          </g>
        </g>
        <path class="cls-3" d="M36.72,28.89c.6-1.06.96-2.33.96-3.65,0-1.26-.37-2.49-.96-3.59"/>
        <path class="cls-3" d="M41.49,32.25c1.4-1.96,2.19-4.35,2.19-6.94s-.8-4.98-2.19-6.94"/>
        <path class="cls-3" d="M46.26,35.4c2.16-2.82,3.42-6.35,3.42-10.17s-1.26-7.28-3.42-10.1"/>
      </g>
    </g>
  </g>
</svg>