<svg data-name="レイヤー 2" xmlns="http://www.w3.org/2000/svg" viewBox="0 0 33.82 43.82"><g data-name="menu"><path d="M33.41 33.61v5.7c0 .57-.11 1.1-.32 1.59s-.51.93-.88 1.3-.81.67-1.3.88-1.03.32-1.59.32H4.51c-.57 0-1.1-.11-1.59-.32s-.93-.51-1.3-.88-.67-.81-.88-1.3-.32-1.03-.32-1.59v-23.4m-.01-5.7v-5.7c0-.57.11-1.1.32-1.59s.51-.93.88-1.3.81-.67 1.3-.88S3.94.42 4.5.42h24.81c.57 0 1.1.11 1.59.32s.93.51 1.3.88.67.81.88 1.3.32 1.03.32 1.59v23.4" style="fill:none;stroke:#000;stroke-miterlimit:10;stroke-width:.82px"/><path d="M33.41 33.61v5.7c0 .57-.11 1.1-.32 1.59s-.51.93-.88 1.3-.81.67-1.3.88-1.03.32-1.59.32H4.51c-.57 0-1.1-.11-1.59-.32s-.93-.51-1.3-.88-.67-.81-.88-1.3-.32-1.03-.32-1.59V4.51c0-.57.11-1.1.32-1.59s.51-.93.88-1.3.81-.67 1.3-.88S3.95.42 4.51.42h24.81c.57 0 1.1.11 1.59.32s.93.51 1.3.88.67.81.88 1.3.32 1.03.32 1.59v29.1Z" style="fill:#fff;opacity:.5"/><path d="m19.25 24.25 2.35 2.35 2.34 2.34 2.35 2.35M7.53 12.53l2.34 2.34 2.35 2.35 2.34 2.34m2.35 2.35-2.35 2.34-2.34 2.35-2.35 2.34-2.34 2.35m18.76-18.76-2.35 2.34-2.34 2.35-2.35 2.34" style="fill:none;stroke:#000;stroke-miterlimit:10;stroke-width:.82px"/></g></svg>