<?xml version="1.0" encoding="UTF-8"?>
<svg id="_レイヤー_2" data-name="レイヤー 2" xmlns="http://www.w3.org/2000/svg" viewBox="0 0 36.17 23.63">
  <defs>
    <style>
      .cls-1 {
        stroke-miterlimit: 10;
        stroke-width: .63px;
      }

      .cls-1, .cls-2 {
        fill: none;
        stroke: #585757;
      }

      .cls-3 {
        fill: #e67057;
      }

      .cls-4 {
        fill: #dfb267;
      }

      .cls-5 {
        fill: #fff;
      }

      .cls-2 {
        stroke-linecap: round;
        stroke-linejoin: round;
        stroke-width: .66px;
      }
    </style>
  </defs>
  <g id="_menu" data-name="
menu">
    <g>
      <rect class="cls-5" x=".31" y=".31" width="35.55" height="23"/>
      <g>
        <rect class="cls-4" x="29.86" y=".31" width="6" height="23" transform="translate(65.72 23.63) rotate(-180)"/>
        <line class="cls-1" x1="29.86" y1="23.31" x2="29.86" y2=".31"/>
        <g>
          <rect class="cls-5" x="31.61" y="2.84" width="2.5" height="2" rx=".35" ry=".35" transform="translate(65.72 7.67) rotate(-180)"/>
          <rect class="cls-5" x="31.61" y="8.15" width="2.5" height="2" rx=".35" ry=".35" transform="translate(65.72 18.31) rotate(-180)"/>
          <rect class="cls-5" x="31.61" y="13.47" width="2.5" height="2" rx=".35" ry=".35" transform="translate(65.72 28.95) rotate(-180)"/>
          <rect class="cls-5" x="31.61" y="18.79" width="2.5" height="2" rx=".35" ry=".35" transform="translate(65.72 39.58) rotate(-180)"/>
        </g>
      </g>
      <rect class="cls-4" x=".31" y=".31" width="6" height="23"/>
      <line class="cls-1" x1="6.31" y1="23.31" x2="6.31" y2=".31"/>
      <g>
        <rect class="cls-5" x="2.06" y="2.84" width="2.5" height="2" rx=".35" ry=".35"/>
        <rect class="cls-5" x="2.06" y="8.15" width="2.5" height="2" rx=".35" ry=".35"/>
        <rect class="cls-5" x="2.06" y="13.47" width="2.5" height="2" rx=".35" ry=".35"/>
        <rect class="cls-5" x="2.06" y="18.79" width="2.5" height="2" rx=".35" ry=".35"/>
      </g>
      <g>
        <path class="cls-3" d="M21.43,11.47l-6.29-3.63c-.27-.15-.6.04-.6.34v7.27c0,.31.33.5.6.34l6.29-3.63c.27-.15.27-.54,0-.69Z"/>
        <path class="cls-2" d="M14.54,11.81v3.63c0,.08.02.15.06.2s.08.11.14.14.12.05.19.05.14-.02.21-.05l1.57-.91,1.57-.91"/>
        <path class="cls-2" d="M19.86,13.07l1.57-.91c.07-.04.12-.09.15-.15s.05-.13.05-.19-.02-.13-.05-.19-.08-.11-.15-.15l-1.57-.91-1.57-.91-1.57-.91-1.57-.91c-.07-.04-.14-.06-.21-.05s-.13.02-.19.05-.11.08-.14.14-.06.13-.06.2v1.82"/>
      </g>
      <rect class="cls-1" x=".31" y=".31" width="35.55" height="23"/>
    </g>
  </g>
</svg>