<?xml version="1.0" encoding="UTF-8"?>
<svg id="_レイヤー_2" data-name="レイヤー 2" xmlns="http://www.w3.org/2000/svg" viewBox="0 0 70.05 67.1">
  <defs>
    <style>
      .cls-1 {
        stroke-width: .22px;
      }

      .cls-1, .cls-2 {
        stroke-miterlimit: 10;
      }

      .cls-1, .cls-2, .cls-3 {
        fill: none;
      }

      .cls-1, .cls-3 {
        stroke: #e67057;
      }

      .cls-2 {
        stroke: #595757;
        stroke-width: 1.2px;
      }

      .cls-4 {
        fill: #e67057;
      }

      .cls-3 {
        stroke-linecap: round;
        stroke-linejoin: round;
        stroke-width: 1.72px;
      }

      .cls-5 {
        fill: #fff;
      }
    </style>
  </defs>
  <g id="_menu" data-name="
menu">
    <g>
      <circle class="cls-4" cx="38.6" cy="35.65" r="31.45"/>
      <circle class="cls-5" cx="32.05" cy="32.05" r="31.45"/>
      <g>
        <path class="cls-2" d="M44.29,61.03c-3.76,1.59-7.9,2.47-12.24,2.47s-8.48-.88-12.24-2.47c-3.76-1.59-7.15-3.89-10-6.74s-5.15-6.23-6.74-10c-1.59-3.76-2.47-7.9-2.47-12.24s.88-8.48,2.47-12.24c1.59-3.76,3.89-7.15,6.74-10"/>
        <path class="cls-2" d="M19.81,3.07c3.76-1.59,7.9-2.47,12.24-2.47s8.48.88,12.24,2.47c3.76,1.59,7.15,3.89,10,6.74,2.85,2.85,5.15,6.23,6.74,10,1.59,3.76,2.47,7.9,2.47,12.24s-.88,8.48-2.47,12.24-3.89,7.15-6.74,10"/>
      </g>
      <g>
        <path class="cls-4" d="M19.65,20.21c0-.22-.19-.39-.41-.37l-4.1.38c-.94.1-1.67.87-1.67,1.84v6.14c0,.94.73,1.74,1.67,1.84l4.1.38c.22.02.41-.15.41-.37v-9.83Z"/>
        <path class="cls-4" d="M30.97,13.17l-8.18,6.14c-.27.22-.42.54-.42.89v9.86c0,.34.15.67.42.89l8.18,6.14c.66.56,1.67.07,1.67-.8V13.97c-.03-.87-1.01-1.35-1.67-.8Z"/>
        <g>
          <g>
            <path class="cls-4" d="M27.65,42.22c.72,0,1.37.1,1.96.3.59.2,1.1.48,1.53.85.43.37.76.83,1,1.37.24.54.35,1.16.35,1.84s-.12,1.29-.35,1.84c-.24.54-.57,1-1,1.37-.43.37-.94.65-1.53.85-.59.2-1.25.3-1.96.3s-1.37-.1-1.96-.3c-.59-.2-1.11-.48-1.53-.85-.43-.37-.76-.83-1-1.37-.24-.54-.35-1.16-.35-1.84s.12-1.29.35-1.84c.24-.54.57-1,1-1.37.43-.37.94-.65,1.53-.85.59-.2,1.25-.3,1.96-.3ZM27.65,42.67c-.52,0-.97.11-1.36.32-.38.21-.7.5-.95.86-.25.36-.43.78-.55,1.24s-.18.96-.18,1.48.06,1.01.18,1.48c.12.47.3.89.55,1.25.25.36.56.65.95.86.38.21.84.32,1.36.32s.97-.11,1.36-.32c.38-.21.7-.5.95-.86s.43-.78.55-1.25c.12-.47.18-.96.18-1.48s-.06-1.02-.18-1.48-.3-.88-.55-1.24c-.25-.36-.56-.65-.95-.86-.38-.21-.83-.32-1.36-.32Z"/>
            <path class="cls-4" d="M33.84,50.42c.4-.06.71-.12.93-.19.23-.07.4-.17.52-.31.12-.14.19-.32.23-.55.03-.23.05-.53.05-.91l.05-4.91c-.11-.13-.23-.24-.37-.33-.14-.09-.28-.17-.44-.23-.15-.06-.31-.12-.47-.16-.16-.05-.32-.09-.48-.13v-.3c.22.02.44.03.66.05.22.02.44.03.66.03.58,0,1.15-.03,1.72-.08.84,1.04,1.69,2.06,2.56,3.06.86.99,1.69,2.02,2.49,3.09h.03v-1.02c0-.41,0-.84-.02-1.28-.01-.44-.03-.87-.06-1.29s-.06-.77-.11-1.05c-.03-.22-.09-.4-.17-.54s-.18-.25-.31-.34c-.13-.09-.27-.16-.44-.2-.16-.05-.35-.09-.55-.12v-.3c.29.02.59.03.89.05.3.02.6.03.89.03.59,0,1.17-.03,1.75-.08v.3c-.33.02-.59.06-.78.14-.19.08-.34.2-.44.38-.1.18-.16.41-.19.71-.03.3-.04.68-.04,1.14v5.8h-.75c-.25-.39-.54-.8-.86-1.24-.32-.44-.65-.88-1-1.32s-.7-.88-1.06-1.31-.7-.83-1.03-1.21c-.33-.38-.63-.73-.91-1.04-.28-.32-.51-.57-.71-.78v4.28c0,.43.02.77.05,1.03.03.26.11.46.22.61.11.15.28.26.5.33.22.07.51.14.88.2v.3c-.31-.02-.62-.03-.92-.04-.3,0-.61-.01-.92-.01-.35,0-.7,0-1.04.01-.34,0-.68.02-1.04.04v-.3Z"/>
          </g>
          <g>
            <path class="cls-1" d="M27.65,42.22c.72,0,1.37.1,1.96.3.59.2,1.1.48,1.53.85.43.37.76.83,1,1.37.24.54.35,1.16.35,1.84s-.12,1.29-.35,1.84c-.24.54-.57,1-1,1.37-.43.37-.94.65-1.53.85-.59.2-1.25.3-1.96.3s-1.37-.1-1.96-.3c-.59-.2-1.11-.48-1.53-.85-.43-.37-.76-.83-1-1.37-.24-.54-.35-1.16-.35-1.84s.12-1.29.35-1.84c.24-.54.57-1,1-1.37.43-.37.94-.65,1.53-.85.59-.2,1.25-.3,1.96-.3ZM27.65,42.67c-.52,0-.97.11-1.36.32-.38.21-.7.5-.95.86-.25.36-.43.78-.55,1.24s-.18.96-.18,1.48.06,1.01.18,1.48c.12.47.3.89.55,1.25.25.36.56.65.95.86.38.21.84.32,1.36.32s.97-.11,1.36-.32c.38-.21.7-.5.95-.86s.43-.78.55-1.25c.12-.47.18-.96.18-1.48s-.06-1.02-.18-1.48-.3-.88-.55-1.24c-.25-.36-.56-.65-.95-.86-.38-.21-.83-.32-1.36-.32Z"/>
            <path class="cls-1" d="M33.84,50.42c.4-.06.71-.12.93-.19.23-.07.4-.17.52-.31.12-.14.19-.32.23-.55.03-.23.05-.53.05-.91l.05-4.91c-.11-.13-.23-.24-.37-.33-.14-.09-.28-.17-.44-.23-.15-.06-.31-.12-.47-.16-.16-.05-.32-.09-.48-.13v-.3c.22.02.44.03.66.05.22.02.44.03.66.03.58,0,1.15-.03,1.72-.08.84,1.04,1.69,2.06,2.56,3.06.86.99,1.69,2.02,2.49,3.09h.03v-1.02c0-.41,0-.84-.02-1.28-.01-.44-.03-.87-.06-1.29s-.06-.77-.11-1.05c-.03-.22-.09-.4-.17-.54s-.18-.25-.31-.34c-.13-.09-.27-.16-.44-.2-.16-.05-.35-.09-.55-.12v-.3c.29.02.59.03.89.05.3.02.6.03.89.03.59,0,1.17-.03,1.75-.08v.3c-.33.02-.59.06-.78.14-.19.08-.34.2-.44.38-.1.18-.16.41-.19.71-.03.3-.04.68-.04,1.14v5.8h-.75c-.25-.39-.54-.8-.86-1.24-.32-.44-.65-.88-1-1.32s-.7-.88-1.06-1.31-.7-.83-1.03-1.21c-.33-.38-.63-.73-.91-1.04-.28-.32-.51-.57-.71-.78v4.28c0,.43.02.77.05,1.03.03.26.11.46.22.61.11.15.28.26.5.33.22.07.51.14.88.2v.3c-.31-.02-.62-.03-.92-.04-.3,0-.61-.01-.92-.01-.35,0-.7,0-1.04.01-.34,0-.68.02-1.04.04v-.3Z"/>
          </g>
        </g>
        <path class="cls-3" d="M36.43,28.66c.59-1.05.96-2.31.96-3.63,0-1.25-.36-2.47-.96-3.56"/>
        <path class="cls-3" d="M41.17,32c1.38-1.95,2.18-4.32,2.18-6.89s-.79-4.95-2.18-6.89"/>
        <path class="cls-3" d="M45.9,35.13c2.14-2.8,3.4-6.3,3.4-10.09s-1.25-7.22-3.4-10.02"/>
      </g>
    </g>
  </g>
</svg>