<?xml version="1.0" encoding="UTF-8"?>
<svg id="_レイヤー_2" data-name="レイヤー 2" xmlns="http://www.w3.org/2000/svg" viewBox="0 0 33.82 43.82">
  <defs>
    <style>
      .cls-1 {
        fill: #fff;
        opacity: .5;
      }

      .cls-2 {
        stroke-width: .82px;
      }

      .cls-2, .cls-3 {
        fill: none;
        stroke: #000;
        stroke-miterlimit: 10;
      }

      .cls-3 {
        stroke-width: .82px;
      }
    </style>
  </defs>
  <g id="_menu" data-name="
menu">
    <g>
      <g>
        <path class="cls-2" d="M33.41,33.61v5.7c0,.57-.11,1.1-.32,1.59s-.51.93-.88,1.3-.81.67-1.3.88-1.03.32-1.59.32H4.51c-.57,0-1.1-.11-1.59-.32s-.93-.51-1.3-.88-.67-.81-.88-1.3-.32-1.03-.32-1.59V15.91"/>
        <path class="cls-2" d="M.41,10.21v-5.7c0-.57.11-1.1.32-1.59s.51-.93.88-1.3.81-.67,1.3-.88,1.03-.32,1.59-.32h24.81c.57,0,1.1.11,1.59.32s.93.51,1.3.88.67.81.88,1.3.32,1.03.32,1.59v23.4"/>
      </g>
      <g>
        <path class="cls-1" d="M33.41,33.61v5.7c0,.57-.11,1.1-.32,1.59s-.51.93-.88,1.3-.81.67-1.3.88-1.03.32-1.59.32H4.51c-.57,0-1.1-.11-1.59-.32s-.93-.51-1.3-.88-.67-.81-.88-1.3-.32-1.03-.32-1.59V4.51c0-.57.11-1.1.32-1.59s.51-.93.88-1.3.81-.67,1.3-.88,1.03-.32,1.59-.32h24.81c.57,0,1.1.11,1.59.32s.93.51,1.3.88.67.81.88,1.3.32,1.03.32,1.59v29.1Z"/>
        <g>
          <polyline class="cls-3" points="19.25 24.25 21.6 26.6 23.94 28.94 26.29 31.29"/>
          <polyline class="cls-3" points="7.53 12.53 9.87 14.87 12.22 17.22 14.56 19.56"/>
          <polyline class="cls-3" points="16.91 21.91 14.56 24.25 12.22 26.6 9.87 28.94 7.53 31.29"/>
          <polyline class="cls-3" points="26.29 12.53 23.94 14.87 21.6 17.22 19.25 19.56"/>
        </g>
      </g>
    </g>
  </g>
</svg>