<svg id="_レイヤー_2" data-name="レイヤー 2" xmlns="http://www.w3.org/2000/svg" viewBox="0 0 36.17 23.63"><defs><style>.cls-1{stroke-miterlimit:10;stroke-width:.63px;fill:none;stroke:#585757}.cls-4{fill:#fff}.cls-5{fill:#db6d55}</style></defs><g id="_menu" data-name="menu"><path class="cls-5" transform="rotate(-180 32.86 11.815)" d="M29.86.31h6v23h-6z"/><path class="cls-1" d="M29.86 23.31v-23"/><rect class="cls-4" x="31.61" y="2.84" width="2.5" height="2" rx=".35" ry=".35" transform="rotate(-180 32.86 3.835)"/><rect class="cls-4" x="31.61" y="8.15" width="2.5" height="2" rx=".35" ry=".35" transform="rotate(-180 32.86 9.155)"/><rect class="cls-4" x="31.61" y="13.47" width="2.5" height="2" rx=".35" ry=".35" transform="rotate(-180 32.86 14.475)"/><rect class="cls-4" x="31.61" y="18.79" width="2.5" height="2" rx=".35" ry=".35" transform="rotate(-180 32.86 19.79)"/><path class="cls-5" d="M.31.31h6v23h-6z"/><path class="cls-1" d="M.31.31h35.55v23H.31zm6 23v-23"/><rect class="cls-4" x="2.06" y="2.84" width="2.5" height="2" rx=".35" ry=".35"/><rect class="cls-4" x="2.06" y="8.15" width="2.5" height="2" rx=".35" ry=".35"/><rect class="cls-4" x="2.06" y="13.47" width="2.5" height="2" rx=".35" ry=".35"/><rect class="cls-4" x="2.06" y="18.79" width="2.5" height="2" rx=".35" ry=".35"/><path d="m21.43 11.47-6.29-3.63c-.27-.15-.6.04-.6.34v7.27c0 .31.33.5.6.34l6.29-3.63c.27-.15.27-.54 0-.69Z" style="fill:#e67057"/><path d="M14.54 11.81v3.63c0 .08.02.15.06.2s.08.11.14.14.12.05.19.05.14-.02.21-.05l1.57-.91 1.57-.91m1.58-.89 1.57-.91c.07-.04.12-.09.15-.15s.05-.13.05-.19-.02-.13-.05-.19-.08-.11-.15-.15l-1.57-.91-1.57-.91-1.57-.91-1.57-.91c-.07-.04-.14-.06-.21-.05s-.13.02-.19.05-.11.08-.14.14-.06.13-.06.2V10" style="stroke-linecap:round;stroke-linejoin:round;stroke-width:.66px;fill:none;stroke:#585757"/></g></svg>