<svg data-name="レイヤー 2" xmlns="http://www.w3.org/2000/svg" viewBox="0 0 70.85 70.85"><defs><filter id="a" x="21.22" y="14.44" width="29.35" height="27.16" filterUnits="userSpaceOnUse"><feOffset dx=".94" dy=".94"/><feGaussianBlur result="blur"/><feFlood flood-color="#ad8209" flood-opacity="1"/><feComposite in2="blur" operator="in"/><feComposite in="SourceGraphic"/></filter></defs><g data-name="menu"><path d="m69.71 36.55-9.52 4.53c-.69.33-.93 1.2-.49 1.83l5.98 8.68c.6.87-.08 2.04-1.13 1.95l-10.51-.85a1.24 1.24 0 0 0-1.34 1.34l.85 10.51c.08 1.05-1.09 1.72-1.95 1.13l-8.68-5.98c-.63-.44-1.5-.2-1.83.49l-4.53 9.52c-.45.95-1.8.95-2.25 0l-4.53-9.52c-.33-.69-1.2-.93-1.83-.49l-8.68 5.98c-.87.6-2.04-.08-1.95-1.13l.85-10.51a1.24 1.24 0 0 0-1.34-1.34l-10.51.85c-1.05.08-1.72-1.09-1.13-1.95l5.98-8.68c.44-.63.2-1.5-.49-1.83l-9.52-4.53c-.95-.45-.95-1.8 0-2.25l9.52-4.53c.69-.33.93-1.2.49-1.83l-5.98-8.68c-.6-.87.08-2.04 1.13-1.95l10.51.85c.77.06 1.41-.58 1.34-1.34l-.85-10.51c-.08-1.05 1.09-1.72 1.95-1.13l8.68 5.98c.63.44 1.5.2 1.83-.49l4.53-9.52c.45-.95 1.8-.95 2.25 0l4.53 9.52c.33.69 1.2.93 1.83.49l8.68-5.98c.87-.6 2.04.08 1.95 1.13l-.85 10.51c-.06.77.58 1.41 1.34 1.34l10.51-.85c1.05-.08 1.72 1.09 1.13 1.95l-5.98 8.68c-.44.63-.2 1.5.49 1.83l9.52 4.53c.95.45.95 1.8 0 2.25Z" style="fill:#d9ae5c"/><path d="m56.67 52.91-2.63-.21c-.19-.02-.38.01-.54.08s-.32.16-.44.29-.22.27-.29.44-.09.35-.08.54l.21 2.63.21 2.63.21 2.63.21 2.63c.02.26-.04.5-.15.7s-.28.37-.47.48-.42.17-.65.17-.47-.07-.68-.22l-2.17-1.5-2.17-1.5-2.17-1.5-2.17-1.5c-.16-.11-.33-.18-.51-.2s-.35-.02-.52.03-.33.13-.47.24-.25.26-.34.43l-1.13 2.38-1.13 2.38-1.13 2.38-1.13 2.38c-.11.24-.28.41-.48.53s-.42.18-.65.18-.45-.06-.65-.18-.37-.3-.48-.53l-1.13-2.38-1.13-2.38-1.13-2.38-1.13-2.38c-.08-.17-.2-.32-.34-.43s-.3-.19-.47-.24-.35-.06-.52-.03-.35.1-.51.2l-2.17 1.5-2.17 1.5-2.17 1.5-2.17 1.5c-.22.15-.45.22-.68.22s-.45-.06-.65-.17-.36-.28-.47-.48-.17-.44-.15-.7l.21-2.63.21-2.63.21-2.63.21-2.63c.02-.19-.01-.38-.08-.54s-.16-.32-.29-.44-.27-.22-.44-.29-.35-.09-.54-.08l-2.63.21-2.63.21-2.63.21-2.63.21a1.248 1.248 0 0 1-1.18-.62c-.11-.19-.17-.42-.17-.65s.07-.47.22-.68l1.5-2.17 1.5-2.17 1.5-2.17 1.5-2.17c.11-.16.18-.33.2-.51s.02-.35-.03-.52-.13-.33-.24-.47-.26-.25-.43-.34l-2.38-1.13-2.38-1.13-2.38-1.13-2.38-1.13c-.24-.11-.41-.28-.53-.48s-.18-.42-.18-.65.06-.45.18-.65.3-.37.53-.48l2.38-1.13 2.38-1.13 2.38-1.13 2.38-1.13c.17-.08.32-.2.43-.34s.19-.3.24-.47.06-.35.03-.52-.1-.35-.2-.51l-1.5-2.17-1.5-2.17-1.5-2.17-1.5-2.17c-.15-.22-.22-.45-.22-.68s.06-.45.17-.65.28-.36.48-.47.44-.17.7-.15l2.63.21 2.63.21 2.63.21 2.63.21c.19.02.38-.01.54-.08s.32-.16.44-.29.22-.27.29-.44.09-.35.08-.54l-.21-2.63m-.41-5.24-.21-2.63a1.248 1.248 0 0 1 .62-1.18c.19-.11.42-.17.65-.17s.47.07.68.22l2.17 1.5 2.17 1.5 2.17 1.5 2.17 1.5c.16.11.33.18.51.2s.35.02.52-.03.33-.13.47-.24.25-.26.34-.43l1.13-2.38 1.13-2.38 1.13-2.38 1.13-2.38c.11-.24.28-.41.48-.53s.42-.18.65-.18.45.06.65.18.37.3.48.53l1.13 2.38 1.13 2.38 1.13 2.38 1.13 2.38c.08.17.2.32.34.43s.3.19.47.24.35.06.52.03.35-.1.51-.2l2.17-1.5 2.17-1.5 2.17-1.5 2.17-1.5c.22-.15.45-.22.68-.22s.45.06.65.17.36.28.47.48.17.44.15.7l-.21 2.63-.21 2.63-.21 2.63-.21 2.63c-.02.19.01.38.08.54s.16.32.29.44.27.22.44.29.35.09.54.08l2.63-.21 2.63-.21 2.63-.21 2.63-.21c.26-.02.5.04.7.15s.37.28.48.47.17.42.17.65-.07.47-.22.68l-1.5 2.17-1.5 2.17-1.5 2.17-1.5 2.17c-.11.16-.18.33-.2.51s-.02.35.03.52.13.33.24.47.26.25.43.34l2.38 1.13 2.38 1.13 2.38 1.13 2.38 1.13c.24.11.41.28.53.48s.18.42.18.65-.06.45-.18.65-.3.37-.53.48l-2.38 1.13-2.38 1.13-2.38 1.13-2.38 1.13c-.17.08-.32.2-.43.34s-.19.3-.24.47-.06.35-.03.52.1.35.2.51l1.5 2.17 1.5 2.17 1.5 2.17 1.5 2.17c.15.22.22.45.22.68s-.06.45-.17.65-.28.36-.48.47-.44.17-.7.15l-2.63-.21" style="stroke:#595757;stroke-linecap:round;stroke-width:.85px;fill:none;stroke-miterlimit:10"/><path d="M26.4 44.26c.66 0 1.27.09 1.82.27.55.18 1.02.45 1.42.79.4.34.71.77.92 1.27s.33 1.07.33 1.7-.11 1.2-.33 1.7-.53.93-.92 1.27c-.4.34-.87.61-1.42.79-.55.18-1.16.27-1.82.27s-1.27-.09-1.82-.27c-.55-.18-1.02-.45-1.42-.79-.4-.34-.71-.77-.92-1.27-.22-.5-.33-1.07-.33-1.7s.11-1.2.33-1.7c.22-.5.53-.93.92-1.27.4-.34.87-.61 1.42-.79a5.84 5.84 0 0 1 1.82-.27Zm0 .42c-.48 0-.9.1-1.26.29-.35.19-.65.46-.88.79-.23.34-.4.72-.51 1.15-.11.43-.16.89-.16 1.37s.05.93.16 1.37c.11.44.28.82.51 1.16.23.34.52.6.88.79.35.19.77.29 1.26.29s.9-.1 1.26-.29c.35-.19.65-.46.88-.79.23-.33.4-.72.51-1.16.11-.44.16-.89.16-1.37s-.05-.94-.16-1.37c-.11-.43-.28-.82-.51-1.15-.23-.33-.52-.6-.88-.79-.35-.19-.77-.29-1.26-.29Zm9.54 3.02h.61c.2 0 .4-.03.6-.08.2-.05.38-.13.54-.25.17-.11.31-.26.44-.45.12-.19.22-.42.28-.69h.23c0 .27-.02.55-.03.83s-.02.56-.02.83 0 .56.02.84l.03.84h-.23c-.06-.29-.14-.53-.23-.72-.09-.19-.21-.35-.36-.47s-.32-.2-.53-.25c-.2-.05-.45-.08-.74-.08h-.61v2.7c0 .19.02.35.05.48.03.13.1.24.19.33.1.09.24.15.42.19.18.04.42.06.72.06v.33c-.37-.02-.74-.03-1.11-.04-.37 0-.74-.01-1.11-.01-.33 0-.65 0-.97.01-.32 0-.64.02-.97.04v-.33c.26 0 .47-.02.62-.06.16-.04.28-.1.37-.19.09-.09.14-.19.18-.33.03-.13.05-.29.05-.48v-4.67c0-.22-.01-.41-.04-.57a.893.893 0 0 0-.17-.41.838.838 0 0 0-.37-.25c-.16-.06-.37-.09-.64-.1v-.33c.4.02.8.03 1.2.05.4.02.8.02 1.2.02.75 0 1.5 0 2.25-.02.74-.02 1.49-.03 2.25-.05 0 .14-.01.28-.01.42v1.13c0 .24.03.48.06.72h-.23c-.17-.66-.46-1.13-.87-1.41s-1-.42-1.76-.42h-1.31v2.84Zm8.97 0h.61c.2 0 .4-.03.6-.08.2-.05.38-.13.54-.25.17-.11.31-.26.44-.45.12-.19.22-.42.28-.69h.23c0 .27-.02.55-.03.83s-.02.56-.02.83 0 .56.02.84l.03.84h-.23c-.06-.29-.14-.53-.23-.72-.09-.19-.21-.35-.36-.47s-.32-.2-.53-.25c-.2-.05-.45-.08-.74-.08h-.61v2.7c0 .19.02.35.05.48.03.13.1.24.19.33.1.09.24.15.42.19.18.04.42.06.72.06v.33c-.37-.02-.74-.03-1.11-.04-.37 0-.74-.01-1.11-.01-.33 0-.65 0-.97.01-.32 0-.64.02-.97.04v-.33c.26 0 .47-.02.62-.06.16-.04.28-.1.37-.19.09-.09.14-.19.18-.33.03-.13.05-.29.05-.48v-4.67c0-.22-.01-.41-.04-.57a.893.893 0 0 0-.17-.41.838.838 0 0 0-.37-.25c-.16-.06-.37-.09-.64-.1v-.33c.4.02.8.03 1.2.05.4.02.8.02 1.2.02.75 0 1.5 0 2.25-.02.74-.02 1.49-.03 2.25-.05 0 .14-.01.28-.01.42v1.13c0 .24.03.48.06.72h-.23c-.17-.66-.46-1.13-.87-1.41s-1-.42-1.76-.42h-1.31v2.84Z" style="fill:#fff;stroke-width:.53px;stroke:#fff;stroke-miterlimit:10"/><path d="M31.87 23.58c0-.22-.19-.39-.41-.37l-4.11.38c-.94.1-1.67.87-1.67 1.84v6.16c0 .94.73 1.74 1.67 1.84l4.11.38c.22.02.41-.15.41-.37v-9.86Zm10.19-7.05-8.21 6.16c-.27.22-.42.54-.42.89v9.88c0 .34.15.67.42.89l8.21 6.16c.66.56 1.67.07 1.67-.8V17.33c-.03-.87-1.01-1.36-1.67-.8Z" style="fill:#fff"/><path style="fill:none;stroke-miterlimit:10;stroke:#fff;filter:url(#a);stroke-width:1.55px" d="M49.11 15.01 21.74 40.09"/></g></svg>