<svg data-name="レイヤー 2" xmlns="http://www.w3.org/2000/svg" viewBox="0 0 33.82 43.82"><rect x=".41" y=".41" width="33" height="43" rx="4.1" ry="4.1" style="fill:#060200;opacity:.7"/><path d="M9.41 12.91h16m-16 9h16m-16 9h16" style="stroke:#fff;stroke-width:.82px;fill:none;stroke-miterlimit:10"/><path d="M33.41 33.61v5.7c0 .57-.11 1.1-.32 1.59s-.51.93-.88 1.3-.81.67-1.3.88-1.03.32-1.59.32H4.51c-.57 0-1.1-.11-1.59-.32s-.93-.51-1.3-.88-.67-.81-.88-1.3-.32-1.03-.32-1.59v-23.4m-.01-5.7v-5.7c0-.57.11-1.1.32-1.59s.51-.93.88-1.3.81-.67 1.3-.88S3.94.42 4.5.42h24.81c.57 0 1.1.11 1.59.32s.93.51 1.3.88.67.81.88 1.3.32 1.03.32 1.59v23.4" style="stroke:#ddad5b;stroke-width:.82px;fill:none;stroke-miterlimit:10"/></svg>