<svg data-name="レイヤー 2" xmlns="http://www.w3.org/2000/svg" viewBox="0 0 32.1 32.1"><g data-name="menu"><path d="M22.18 30.57c-1.88.8-3.96 1.24-6.13 1.24s-4.25-.44-6.13-1.24-3.58-1.95-5.01-3.38a15.764 15.764 0 0 1-3.38-5.01C.73 20.3.29 18.22.29 16.05s.44-4.25 1.24-6.13 1.95-3.58 3.38-5.01m5.01-3.37C11.8.74 13.88.3 16.05.3s4.25.44 6.13 1.24 3.58 1.95 5.01 3.38c1.43 1.43 2.58 3.12 3.38 5.01s1.24 3.96 1.24 6.13-.44 4.25-1.24 6.13-1.95 3.58-3.38 5.01" style="fill:none;stroke:#595757;stroke-miterlimit:10;stroke-width:.6px"/><path d="M24.54 15.39c0-3.8-3.81-6.89-8.49-6.89s-8.49 3.09-8.49 6.89c0 3.4 3.02 6.26 7.1 6.79.28.06.65.18.75.42.09.21.06.55.03.77 0 0-.1.6-.12.73-.04.21-.17.84.74.46.91-.38 4.89-2.88 6.67-4.93 1.23-1.35 1.82-2.72 1.82-4.24" style="fill:#595757"/><path d="M14.33 13.55h-.6c-.09 0-.17.07-.17.17v3.7c0 .09.07.16.17.16h.6c.09 0 .17-.07.17-.16v-3.7c0-.09-.07-.17-.17-.17m4.1 0h-.6c-.09 0-.17.07-.17.17v2.2l-1.69-2.29s0-.01-.01-.02v-.01h-.6c-.09 0-.17.07-.17.17v3.7c0 .09.07.16.17.16h.6c.09 0 .17-.07.17-.16v-2.2l1.7 2.29.04.04h.66c.09 0 .17-.07.17-.16v-3.7c0-.09-.07-.17-.17-.17m-5.64 3.08h-1.62v-2.94c0-.09-.07-.17-.17-.17h-.6c-.09 0-.17.07-.17.17v3.7s.02.08.05.11c.03.03.07.05.11.05h2.38c.09 0 .17-.07.17-.17v-.6c0-.09-.07-.17-.17-.17m8.84-2.15c.09 0 .17-.07.17-.17v-.6c0-.09-.07-.17-.17-.17h-2.38s-.08.02-.11.05a.16.16 0 0 0-.05.11v3.7s.02.08.05.11c.03.03.07.05.11.05h2.38c.09 0 .17-.07.17-.17v-.6c0-.09-.07-.17-.17-.17h-1.62v-.63h1.62c.09 0 .17-.07.17-.17v-.6c0-.09-.07-.17-.17-.17h-1.62v-.62h1.62Z" style="fill:#fff"/></g></svg>