<?xml version="1.0" encoding="UTF-8"?>
<svg id="_レイヤー_2" data-name="レイヤー 2" xmlns="http://www.w3.org/2000/svg" xmlns:xlink="http://www.w3.org/1999/xlink" viewBox="0 0 70.05 67.1">
  <defs>
    <style>
      .cls-1 {
        stroke: #595757;
        stroke-width: 1.2px;
      }

      .cls-1, .cls-2 {
        fill: none;
        stroke-miterlimit: 10;
      }

      .cls-2 {
        filter: url(#drop-shadow-1);
        stroke: #fff;
        stroke-width: 1.82px;
      }

      .cls-3 {
        fill: #d9ae5c;
      }

      .cls-4 {
        fill: #fff;
      }
    </style>
    <filter id="drop-shadow-1" x="15.33" y="7.85" width="34.54" height="31.96" filterUnits="userSpaceOnUse">
      <feOffset dx="1.1" dy="1.1"/>
      <feGaussianBlur result="blur" stdDeviation="0"/>
      <feFlood flood-color="#bc8a39" flood-opacity="1"/>
      <feComposite in2="blur" operator="in"/>
      <feComposite in="SourceGraphic"/>
    </filter>
  </defs>
  <g id="_menu" data-name="
menu">
    <g>
      <circle class="cls-3" cx="38.6" cy="35.65" r="31.45"/>
      <circle class="cls-4" cx="32.05" cy="32.05" r="31.45"/>
      <g>
        <path class="cls-1" d="M44.29,61.03c-3.76,1.59-7.9,2.47-12.24,2.47s-8.48-.88-12.24-2.47c-3.76-1.59-7.15-3.89-10-6.74s-5.15-6.23-6.74-10c-1.59-3.76-2.47-7.9-2.47-12.24s.88-8.48,2.47-12.24c1.59-3.76,3.89-7.15,6.74-10"/>
        <path class="cls-1" d="M19.81,3.07c3.76-1.59,7.9-2.47,12.24-2.47s8.48.88,12.24,2.47c3.76,1.59,7.15,3.89,10,6.74,2.85,2.85,5.15,6.23,6.74,10,1.59,3.76,2.47,7.9,2.47,12.24s-.88,8.48-2.47,12.24c-1.59,3.76-3.89,7.15-6.74,10"/>
      </g>
      <g>
        <path class="cls-3" d="M21.43,42.93c.78,0,1.49.11,2.14.32.65.22,1.2.53,1.67.93.47.4.83.9,1.09,1.49.26.59.38,1.26.38,2s-.13,1.41-.38,2c-.26.59-.62,1.09-1.09,1.49-.47.4-1.02.71-1.67.93s-1.36.32-2.14.32-1.49-.11-2.14-.32-1.2-.52-1.67-.93c-.47-.4-.83-.9-1.09-1.49-.26-.59-.39-1.26-.39-2s.13-1.41.39-2c.26-.59.62-1.09,1.09-1.49.47-.4,1.02-.71,1.67-.93.65-.22,1.36-.32,2.14-.32ZM21.43,43.42c-.57,0-1.06.11-1.48.34-.42.23-.76.54-1.03.94-.27.39-.47.85-.6,1.35-.13.51-.19,1.05-.19,1.62s.06,1.1.19,1.61c.13.51.33.97.6,1.36.27.39.61.71,1.03.94.42.23.91.34,1.48.34s1.06-.11,1.48-.34c.42-.23.76-.54,1.03-.94.27-.39.47-.85.6-1.36.13-.51.19-1.05.19-1.61s-.06-1.11-.19-1.62c-.13-.51-.33-.96-.6-1.35-.27-.39-.61-.71-1.03-.94-.42-.23-.91-.34-1.48-.34Z"/>
        <path class="cls-3" d="M32.66,46.99h.72c.24,0,.47-.03.7-.09.23-.06.44-.16.64-.29.2-.13.37-.31.52-.53.15-.22.26-.49.33-.81h.27c0,.32-.02.65-.03.98s-.02.66-.02.98,0,.66.02.98c.01.33.03.65.03.98h-.27c-.07-.34-.17-.62-.28-.85-.11-.23-.25-.41-.43-.55-.17-.14-.38-.24-.62-.3-.24-.06-.53-.09-.87-.09h-.72v3.18c0,.22.02.41.06.56.04.16.11.28.23.39.11.1.28.17.5.22.21.05.5.07.85.07v.39c-.44-.02-.88-.03-1.31-.04-.43,0-.87-.01-1.31-.01-.38,0-.77,0-1.14.01-.38,0-.76.02-1.14.04v-.39c.3,0,.55-.02.74-.07.19-.05.33-.12.43-.22.1-.1.17-.23.21-.39.04-.16.05-.34.05-.56v-5.5c0-.26-.02-.48-.05-.67-.03-.19-.1-.35-.2-.48-.1-.13-.25-.23-.43-.3-.19-.07-.44-.11-.75-.12v-.39c.47.02.94.04,1.41.05.47.02.94.03,1.41.03.89,0,1.77,0,2.65-.03.88-.02,1.76-.04,2.65-.05,0,.17-.01.33-.01.5v.48c0,.28,0,.57,0,.85,0,.28.03.57.08.85h-.28c-.2-.78-.54-1.33-1.02-1.66s-1.17-.5-2.07-.5h-1.54v3.34Z"/>
        <path class="cls-3" d="M43.22,46.99h.72c.24,0,.47-.03.7-.09.23-.06.44-.16.64-.29.2-.13.37-.31.52-.53.15-.22.26-.49.33-.81h.27c0,.32-.02.65-.03.98s-.02.66-.02.98,0,.66.02.98c.01.33.03.65.03.98h-.27c-.07-.34-.17-.62-.28-.85-.11-.23-.25-.41-.43-.55-.17-.14-.38-.24-.62-.3-.24-.06-.53-.09-.87-.09h-.72v3.18c0,.22.02.41.06.56.04.16.11.28.23.39.11.1.28.17.5.22.21.05.5.07.85.07v.39c-.44-.02-.88-.03-1.31-.04-.43,0-.87-.01-1.31-.01-.38,0-.77,0-1.14.01-.38,0-.76.02-1.14.04v-.39c.3,0,.55-.02.74-.07.19-.05.33-.12.43-.22.1-.1.17-.23.21-.39.04-.16.05-.34.05-.56v-5.5c0-.26-.02-.48-.05-.67-.03-.19-.1-.35-.2-.48-.1-.13-.25-.23-.43-.3-.19-.07-.44-.11-.75-.12v-.39c.47.02.94.04,1.41.05.47.02.94.03,1.41.03.89,0,1.77,0,2.65-.03.88-.02,1.76-.04,2.65-.05,0,.17-.01.33-.01.5v.48c0,.28,0,.57,0,.85,0,.28.03.57.08.85h-.28c-.2-.78-.54-1.33-1.02-1.66s-1.17-.5-2.07-.5h-1.54v3.34Z"/>
      </g>
      <g>
        <path class="cls-3" d="M27.87,18.61c0-.26-.22-.46-.48-.44l-4.84.45c-1.11.12-1.97,1.02-1.97,2.17v7.25c0,1.11.86,2.05,1.97,2.17l4.84.45c.26.02.48-.18.48-.44v-11.61Z"/>
        <path class="cls-3" d="M39.87,10.3l-9.66,7.25c-.31.26-.5.64-.5,1.05v11.63c0,.41.18.79.5,1.05l9.66,7.25c.78.66,1.97.08,1.97-.94V11.24c-.04-1.02-1.19-1.6-1.97-.94Z"/>
      </g>
      <line class="cls-2" x1="48.16" y1="8.52" x2="15.95" y2="38.03"/>
    </g>
  </g>
</svg>