<svg data-name="レイヤー 2" xmlns="http://www.w3.org/2000/svg" viewBox="0 0 143.91 26.58"><path d="M29.35 25.67c0 .31-.02.33-.14.41-.73.38-1.83.5-2.7.5-2.73 0-5.15-1.31-5.15-4.42 0-1.8.93-3.06 1.94-3.68 1.07-.65 2.06-.73 3-.73.78 0 1.75.13 1.98.18.23.05.62.11.87.12.14.02.16.05.16.14 0 .12-.08.44-.08 1.85 0 .18-.03.24-.12.24-.08 0-.11-.06-.11-.16-.04-.26-.1-.62-.39-.93-.32-.36-1.23-.88-2.49-.88-.61 0-1.42.05-2.2.7-.62.54-1.03 1.38-1.03 2.77 0 2.41 1.52 4.24 3.88 4.24.31 0 .69 0 .95-.14.17-.08.21-.22.21-.41V24.4c0-.55 0-.99-.01-1.32-.02-.38-.11-.56-.48-.64-.09-.03-.28-.04-.43-.04-.11 0-.17-.02-.17-.09 0-.1.08-.12.23-.12.58 0 1.29.04 1.63.04s.93-.04 1.3-.04c.15 0 .23.02.23.12l-.15.09c-.09 0-.17 0-.31.04-.3.05-.41.24-.41.64-.01.34-.01.8-.01 1.36v1.24m12.52-2.77.06-.06-1.01-2.78-.05-.11-.07.11-1.03 2.76.05.08h2.05m-2.28.57-.1.09-.6 1.61c-.11.28-.17.55-.17.69 0 .2.1.35.44.35h.18c.13 0 .16.02.16.09 0 .09-.07.12-.19.12-.36 0-.84-.04-1.18-.04-.12 0-.74.04-1.32.04-.15 0-.22-.03-.22-.12 0-.07.05-.09.14-.09h.34c.51-.08.72-.47.94-1.03l2.79-7.08c.14-.32.2-.45.31-.45s.18.1.28.37c.27.62 2.05 5.22 2.77 6.93.42 1 .74 1.17.97 1.23.17.04.34.04.48.04.1 0 .14.01.14.09 0 .09-.1.12-.52.12s-1.22 0-2.09-.03c-.2-.02-.34-.02-.34-.09 0-.07.05-.09.16-.1.07-.02.15-.13.1-.26l-.9-2.38-.11-.09h-2.48m15.38-1.42c0 .12.02.16.12.19.23.08.57.12.83.12.45 0 .6-.04.8-.19.34-.25.66-.77.66-1.69 0-1.6-1.05-2.06-1.71-2.06-.28 0-.48 0-.58.04-.09.02-.12.07-.12.16v3.43m-1.31-.9c0-1.71 0-2.03-.03-2.38-.02-.38-.12-.56-.47-.64-.1-.03-.28-.04-.44-.04-.12 0-.19-.02-.19-.09 0-.08.07-.11.25-.11.59 0 1.3.04 1.53.04.37 0 1.22-.04 1.57-.04.7 0 1.44.07 2.05.49.31.21.76.79.76 1.54 0 .84-.35 1.61-1.47 2.53.98 1.27 1.76 2.27 2.41 2.97.63.65 1.09.73 1.26.76.13.03.23.04.31.04.1 0 .14.02.14.09 0 .09-.08.12-.21.12h-1.06c-.63 0-.89-.06-1.19-.22-.49-.26-.91-.79-1.54-1.66-.44-.62-.95-1.39-1.1-1.56l-.2-.09h-.96l-.1.08v.15c0 1.05 0 1.94.06 2.42.04.31.1.57.43.61.17.04.42.04.56.04.08 0 .12.02.12.09 0 .07-.08.12-.22.12-.64 0-1.46-.04-1.63-.04-.21 0-.92.04-1.37.04-.15 0-.22-.04-.22-.12 0-.07.05-.09.17-.09.17 0 .31 0 .41-.04.22-.05.27-.3.31-.61.06-.48.06-1.37.06-2.4v-1.99m16.51 1.23c0 1.2.02 2.07.03 2.27 0 .29.04.73.13.85.14.22.57.46 1.46.46 1.13 0 1.89-.23 2.56-.81.72-.63.94-1.64.94-2.81 0-1.43-.6-2.36-1.08-2.82-1.03-1-2.31-1.12-3.18-1.12-.22 0-.63.03-.71.07-.12.05-.13.11-.13.22-.02.4-.02 1.38-.02 2.26v1.42m-1.38-1.23c0-1.71 0-2.03-.03-2.38-.03-.38-.11-.56-.48-.64-.09-.03-.29-.04-.44-.04-.12 0-.19-.02-.19-.09 0-.08.08-.11.26-.11.59 0 1.28.04 1.59.04.36 0 1.06-.04 1.72-.04 1.41 0 3.27 0 4.48 1.28.56.59 1.09 1.52 1.09 2.86 0 1.41-.59 2.5-1.22 3.15-.51.53-1.67 1.33-3.74 1.33-.82 0-1.82-.14-2.38-.14-.26 0-.96.04-1.4.04-.14 0-.24-.04-.24-.12 0-.07.05-.09.18-.09.17 0 .31 0 .41-.04.23-.05.28-.3.32-.61.07-.48.07-1.37.07-2.4v-1.99m17.02-.01c0-1.71 0-2.03-.02-2.38-.02-.38-.11-.56-.47-.64-.09-.03-.29-.04-.44-.04-.12 0-.18-.02-.18-.09 0-.08.07-.11.23-.11.59 0 1.3.04 1.61.04.36 0 2.58 0 2.79-.02.21-.02.38-.05.47-.07l.18-.04.06.1c0 .08-.05.22-.08.73-.02.12-.04.61-.07.75l-.1.13c-.09 0-.11-.06-.11-.16 0-.07-.02-.28-.06-.41-.08-.2-.19-.34-.75-.41-.2-.02-1.36-.05-1.58-.05l-.08.11v2.86l.08.11c.24 0 1.54 0 1.78-.02.28-.02.44-.04.54-.16.08-.1.13-.16.19-.16l.07.09c0 .07-.06.25-.09.83-.02.23-.04.67-.04.75 0 .1 0 .22-.11.22l-.09-.1c0-.13 0-.27-.05-.41-.06-.22-.21-.39-.63-.44-.21-.03-1.31-.04-1.59-.04l-.06.11v2.64c.02.78.2.95 1.34.95.3 0 .76 0 1.05-.13.29-.14.42-.37.5-.84.02-.12.05-.16.12-.16.09 0 .09.08.09.2 0 .25-.09 1.03-.15 1.25-.08.29-.17.29-.59.29-1.69 0-2.43-.08-3.1-.08-.26 0-.96.04-1.41.04-.15 0-.22-.04-.22-.12 0-.07.05-.09.17-.09.17 0 .31 0 .42-.04.23-.05.27-.3.32-.61.05-.48.05-1.37.05-2.4v-1.99m14.38 3.74c.03.87.16 1.18.39 1.24.19.07.39.08.57.08.13 0 .2.02.2.09 0 .09-.11.12-.26.12-.73 0-1.16-.04-1.38-.04-.09 0-.63.04-1.2.04-.14 0-.24-.02-.24-.12 0-.07.06-.09.17-.09.15 0 .35 0 .5-.05.28-.09.34-.42.35-1.4l.1-6.67c0-.22.05-.38.14-.38.13 0 .24.15.42.36.13.14 1.84 1.98 3.45 3.62.76.76 2.27 2.39 2.46 2.57h.05l-.11-5.06c-.02-.69-.13-.9-.38-1.01-.17-.08-.44-.08-.59-.08-.13 0-.18-.03-.18-.09 0-.1.12-.11.29-.11.58 0 1.12.04 1.34.04.13 0 .55-.04 1.1-.04.13 0 .25.01.25.11 0 .05-.06.09-.21.09-.1 0-.19 0-.32.04-.31.08-.41.32-.42.96l-.11 7.11c0 .25-.05.35-.15.35-.13 0-.26-.13-.38-.25-.7-.68-2.12-2.15-3.29-3.31-1.21-1.21-2.45-2.63-2.65-2.84h-.04l.13 4.74m16.01 1.37c-.18-.08-.22-.14-.22-.39 0-.61.05-1.29.07-1.47 0-.17.03-.3.12-.3.1 0 .12.1.12.19 0 .15.03.39.09.58.25.83.91 1.15 1.61 1.15 1 0 1.49-.69 1.49-1.29 0-.56-.17-1.08-1.1-1.8l-.51-.4c-1.23-.97-1.64-1.76-1.64-2.67 0-1.24 1.02-2.13 2.57-2.13.72 0 1.19.11 1.48.2.11.01.16.05.16.13 0 .16-.04.48-.04 1.36 0 .25-.04.33-.13.33-.07 0-.11-.07-.11-.21 0-.1-.05-.45-.28-.74-.18-.21-.49-.55-1.22-.55-.82 0-1.33.49-1.33 1.17 0 .52.26.91 1.17 1.61l.32.24c1.34 1.06 1.84 1.8 1.84 2.88 0 .66-.25 1.43-1.05 1.96-.56.35-1.18.46-1.77.46-.65 0-1.15-.08-1.63-.29M3.07 11.48c.04 1.4.27 1.87.62 1.98.3.11.64.13.93.13.19 0 .31.04.31.14 0 .15-.17.19-.42.19-1.14 0-1.85-.06-2.19-.06-.15 0-.99.06-1.91.06-.23 0-.4-.03-.4-.19 0-.1.11-.14.29-.14.23 0 .55-.02.8-.08.46-.15.54-.66.55-2.23L1.79.7c0-.36.06-.61.23-.61.2 0 .35.22.66.54.22.24 2.9 3.16 5.49 5.74 1.21 1.23 3.59 3.8 3.89 4.07h.1l-.18-8.01c-.02-1.1-.18-1.44-.59-1.62-.27-.1-.7-.1-.96-.1-.21 0-.28-.06-.28-.16 0-.14.2-.16.46-.16.93 0 1.78.05 2.14.05.19 0 .87-.05 1.74-.05.23 0 .4.02.4.16 0 .1-.09.16-.32.16-.18 0-.31 0-.52.05-.49.15-.63.51-.66 1.52l-.2 11.29c0 .39-.07.55-.23.55-.19 0-.4-.2-.6-.4-1.11-1.06-3.38-3.41-5.22-5.25C5.21 6.55 3.25 4.3 2.93 3.96h-.07l.2 7.52m15.79-5.9c0-2.72 0-3.23-.04-3.79-.03-.61-.21-.92-.59-1.01-.19-.05-.43-.06-.64-.06-.17 0-.28-.04-.28-.18 0-.11.14-.14.43-.14.67 0 1.78.05 2.3.05.44 0 1.49-.05 2.15-.05.24 0 .38.03.38.14 0 .15-.12.18-.28.18-.18 0-.32 0-.53.05-.48.1-.63.39-.65 1.03-.03.56-.03 1.07-.03 3.79v3.15c0 1.72 0 3.14.06 3.92.06.48.18.81.71.88.26.04.64.07.9.07.19 0 .28.06.28.14 0 .13-.13.19-.34.19-1.16 0-2.28-.06-2.75-.06-.42 0-1.53.06-2.24.06-.22 0-.35-.06-.35-.19 0-.08.06-.14.28-.14.26 0 .47-.03.63-.07.34-.07.45-.38.51-.9.08-.75.08-2.17.08-3.89V5.6m7.05 8.1c-.3-.12-.35-.22-.35-.61 0-.98.07-2.05.08-2.35.03-.26.08-.46.22-.46.17 0 .18.16.18.31 0 .23.07.61.16.91.39 1.32 1.43 1.81 2.53 1.81 1.58 0 2.37-1.09 2.37-2.04 0-.87-.27-1.72-1.74-2.86l-.82-.65c-1.93-1.53-2.62-2.79-2.62-4.24 0-1.97 1.63-3.39 4.09-3.39 1.14 0 1.9.18 2.36.31.15.04.25.09.25.21 0 .24-.08.76-.08 2.15 0 .39-.04.54-.2.54-.11 0-.17-.11-.17-.32 0-.16-.09-.72-.46-1.18-.27-.33-.78-.87-1.94-.87-1.3 0-2.09.76-2.09 1.84 0 .83.41 1.44 1.88 2.57l.49.38c2.13 1.67 2.9 2.87 2.9 4.57 0 1.04-.38 2.28-1.66 3.12-.89.57-1.88.72-2.82.72-1.02 0-1.83-.12-2.57-.46m20.36-7.62c.06 0 .12-.04.12-.13v-.37c0-2.72 0-3.23-.04-3.79-.04-.61-.18-.9-.77-1.02-.13-.04-.44-.05-.68-.05-.2 0-.31-.04-.31-.16 0-.13.13-.16.37-.16.97 0 2.08.05 2.56.05.42 0 1.54-.05 2.23-.05.24 0 .37.03.37.16 0 .12-.11.16-.32.16-.14 0-.31 0-.51.05-.49.09-.63.39-.67 1.02-.03.56-.03 1.07-.03 3.79v3.15c0 1.65 0 3.06.09 3.83.06.5.17.9.7.96.25.04.63.07.9.07.2 0 .28.06.28.14 0 .13-.14.19-.35.19-1.15 0-2.26-.06-2.76-.06-.4 0-1.51.06-2.21.06-.24 0-.37-.06-.37-.19 0-.08.06-.14.27-.14.28 0 .48-.03.64-.07.35-.07.45-.46.51-.98.1-.75.1-2.17.1-3.81V7.17l-.12-.11h-6.76s-.11.01-.11.11v1.57c0 1.65 0 3.06.1 3.83.06.5.16.9.68.96.25.04.64.07.9.07.21 0 .3.06.3.14 0 .13-.14.19-.37.19-1.14 0-2.26-.06-2.76-.06-.4 0-1.53.06-2.23.06-.24 0-.37-.06-.37-.19 0-.08.08-.14.29-.14.27 0 .48-.03.63-.07.35-.07.45-.46.52-.98.08-.75.08-2.17.08-3.81V5.59c0-2.72 0-3.23-.03-3.79-.03-.61-.18-.9-.76-1.02-.13-.04-.44-.05-.69-.05-.19 0-.3-.04-.3-.16 0-.13.13-.16.36-.16.96 0 2.08.05 2.56.05.43 0 1.54-.05 2.23-.05.25 0 .37.03.37.16 0 .12-.11.16-.32.16-.14 0-.31 0-.51.05-.48.09-.62.39-.66 1.02-.04.56-.04 1.07-.04 3.79v.37c0 .09.06.13.11.13h6.76m8.14-.51c0-2.72 0-3.23-.03-3.79-.04-.61-.22-.92-.61-1.01-.19-.05-.43-.06-.63-.06-.19 0-.29-.04-.29-.18 0-.11.15-.14.43-.14.67 0 1.79.05 2.3.05.43 0 1.49-.05 2.16-.05.23 0 .37.03.37.14 0 .15-.1.18-.28.18-.17 0-.32 0-.53.05-.48.1-.63.39-.65 1.03-.04.56-.04 1.07-.04 3.79v3.15c0 1.72 0 3.14.06 3.92.05.48.18.81.71.88.25.04.64.07.9.07.2 0 .29.06.29.14 0 .13-.14.19-.34.19-1.16 0-2.29-.06-2.76-.06-.41 0-1.52.06-2.23.06-.23 0-.36-.06-.36-.19 0-.08.07-.14.29-.14.26 0 .47-.03.63-.07.36-.07.47-.38.52-.9.09-.75.09-2.17.09-3.89V5.6m9 5.88c.03 1.4.27 1.87.62 1.98.3.11.64.13.92.13.2 0 .31.04.31.14 0 .15-.15.19-.4.19-1.15 0-1.86-.06-2.2-.06-.17 0-.99.06-1.91.06-.23 0-.38-.03-.38-.19 0-.1.11-.14.28-.14.24 0 .55-.02.8-.08.46-.15.53-.66.55-2.23L62.11.7c0-.36.05-.61.23-.61.2 0 .35.22.66.54.21.24 2.9 3.16 5.5 5.74 1.19 1.23 3.59 3.8 3.9 4.07h.08l-.18-8.01c-.01-1.1-.17-1.44-.61-1.62-.26-.1-.68-.1-.94-.1-.21 0-.28-.06-.28-.16 0-.14.2-.16.46-.16.93 0 1.78.05 2.15.05.19 0 .86-.05 1.73-.05.23 0 .41.02.41.16 0 .1-.11.16-.32.16-.17 0-.32 0-.52.05-.5.15-.64.51-.66 1.52l-.19 11.29c0 .39-.08.55-.23.55-.18 0-.41-.2-.61-.4-1.11-1.06-3.38-3.41-5.22-5.25-1.93-1.92-3.9-4.17-4.23-4.51h-.05l.2 7.52M89.12 7.5c0-4.01-2.29-6.49-5.19-6.49-2.03 0-4.34 1.14-4.34 5.59 0 3.72 2.02 6.67 5.41 6.67 1.26 0 4.12-.6 4.12-5.77m-11.98-.34c0-3.07 2-7.02 7.32-7.02 4.41 0 7.15 2.6 7.15 6.69s-2.84 7.33-7.34 7.33c-5.08 0-7.13-3.84-7.13-7m18.9-6.7c.06-.3.17-.46.31-.46s.25.09.48.56l4.83 10.09L106.48.43c.13-.29.23-.43.38-.43.17 0 .27.17.33.56l1.6 11.06c.16 1.13.34 1.64.88 1.8.52.16.87.18 1.09.18.17 0 .29.02.29.13 0 .13-.21.19-.46.19-.45 0-2.88-.06-3.59-.11-.42-.05-.52-.08-.52-.2 0-.09.07-.15.19-.2.1-.04.16-.26.1-.76l-1.07-7.87h-.06l-3.86 8.12c-.41.83-.5 1-.67 1-.15 0-.34-.36-.61-.89-.43-.82-1.83-3.56-2.04-4.06-.17-.38-1.22-2.63-1.85-3.97h-.07l-.91 7.11c-.04.33-.06.56-.06.85 0 .33.23.5.52.57.32.07.57.08.75.08.14 0 .26.03.26.13 0 .15-.15.19-.42.19-.74 0-1.55-.06-1.87-.06s-1.17.06-1.74.06c-.18 0-.33-.04-.33-.19 0-.1.11-.13.28-.13.15 0 .28 0 .53-.06.5-.1.64-.79.73-1.41L96.03.46m17.83 5.12c0-2.72 0-3.23-.04-3.79-.04-.61-.22-.92-.6-1.01-.19-.05-.43-.06-.63-.06-.18 0-.28-.04-.28-.18 0-.11.14-.14.43-.14.68 0 1.79.05 2.3.05.45 0 1.49-.05 2.16-.05.23 0 .37.03.37.14 0 .15-.11.18-.28.18-.19 0-.33 0-.54.05-.48.1-.62.39-.66 1.03-.03.56-.03 1.07-.03 3.79v3.15c0 1.72 0 3.14.07 3.92.04.48.17.81.71.88.24.04.63.07.9.07.2 0 .28.06.28.14 0 .13-.13.19-.33.19-1.17 0-2.29-.06-2.76-.06-.41 0-1.52.06-2.23.06-.23 0-.36-.06-.36-.19 0-.08.08-.14.28-.14.28 0 .5-.03.65-.07.35-.07.46-.38.51-.9.09-.75.09-2.17.09-3.89V5.6m9.97 3.69c0-.97-.17-1.38-.4-1.89-.13-.29-2.49-4.21-3.12-5.15-.44-.66-.88-1.11-1.22-1.3-.23-.12-.53-.22-.75-.22-.13 0-.26-.04-.26-.16 0-.11.13-.17.34-.17.32 0 1.65.05 2.23.05.37 0 1.09-.05 1.89-.05.18 0 .27.05.27.17 0 .1-.13.12-.4.19-.16.03-.23.17-.23.33 0 .14.08.35.21.6.25.55 2.72 4.86 3.01 5.36.18-.44 2.41-4.37 2.65-4.92.18-.4.24-.7.24-.94 0-.18-.06-.38-.36-.45-.15-.03-.31-.07-.31-.17 0-.13.08-.17.29-.17.59 0 1.16.05 1.67.05.39 0 1.57-.05 1.9-.05.19 0 .32.03.32.14 0 .12-.14.18-.33.18-.18 0-.51.06-.78.2-.38.19-.58.4-.96.89-.59.7-3.06 4.92-3.38 5.69-.26.64-.26 1.2-.26 1.79v1.46c0 .29 0 1.05.04 1.8.04.52.19.91.73.98.25.04.63.07.89.07.18 0 .27.06.27.14 0 .13-.13.19-.37.19-1.11 0-2.24-.06-2.71-.06-.44 0-1.55.06-2.21.06-.24 0-.39-.04-.39-.19 0-.08.08-.14.3-.14.23 0 .46-.03.61-.07.35-.07.51-.46.56-.98.05-.75.05-1.5.05-1.8V9.29m13.83-.94c.09 0 .11-.04.09-.1l-1.59-4.43-.1-.16-.11.16-1.63 4.4.07.13h3.26m-3.61.9c-.09 0-.12.04-.16.14l-.96 2.55c-.17.45-.27.89-.27 1.11 0 .32.17.55.71.55h.27c.21 0 .26.03.26.14 0 .15-.1.19-.29.19-.57 0-1.33-.06-1.88-.06-.18 0-1.16.06-2.09.06-.24 0-.34-.04-.34-.19 0-.1.08-.14.22-.14.16 0 .4-.02.54-.03.82-.11 1.15-.71 1.52-1.63L136.05.72c.21-.52.32-.72.5-.72.14 0 .25.17.43.56.44 1 3.27 8.3 4.4 11.01.68 1.61 1.18 1.86 1.55 1.95.27.05.54.07.75.07.13 0 .22.02.22.14 0 .15-.16.19-.81.19s-1.93 0-3.35-.04c-.32-.02-.53-.02-.53-.15 0-.1.08-.14.24-.15.14-.04.26-.2.17-.41l-1.41-3.79c-.04-.08-.1-.13-.18-.13h-3.95" style="fill:#595757" data-name="menu"/></svg>