<?xml version="1.0" encoding="UTF-8"?>
<svg id="_レイヤー_2" data-name="レイヤー 2" xmlns="http://www.w3.org/2000/svg" viewBox="0 0 458.35 214.86">
  <defs>
    <style>
      .cls-1 {
        stroke-linecap: round;
        stroke-linejoin: round;
        stroke-width: .52px;
      }

      .cls-1, .cls-2 {
        fill: #fff;
      }

      .cls-1, .cls-3 {
        stroke: #fff;
      }

      .cls-4 {
        fill: #dfb267;
      }

      .cls-3 {
        fill: none;
        stroke-miterlimit: 10;
        stroke-width: 1.03px;
      }
    </style>
  </defs>
  <g id="PC_TOP">
    <g>
      <g>
        <path class="cls-1" d="M12.01,16.21c-.04-.13.25-.31.47-.42.92-.42,1.61-.8,2.3-1.25.69-.42,1.41-.98,2.34-1.83.96-.85,1.58-1.52,2.25-2.28.69-.76,1.58-2.03,2.19-2.97.6-.96.98-1.63,1.12-2.16.13-.51-.2-.76-.85-.56-.42.13-.69.18-1.47.36-.78.18-1.32.29-2.03.31-.71,0-1.41-.25-1.81-.56-.54-.47-.65-.98-.4-1.23.2-.22.6-.25.89-.07.31.2.69.36,1.09.47.67.16,1.7.13,2.72-.04,1.03-.18,1.72-.4,2.01-.51.31-.11.71-.38,1.16-.13.47.25.76.67.85,1.45.09.8-.2,1.16-.65,1.52-.36.29-.65.56-1.21,1.27-.45.62-1.05,1.45-1.87,2.45.74.2,1.65.51,2.43,1.03.94.58,1.61,1.23,2.03,1.78.45.54.85,1.72.2,2.12-.69.42-1.36-.31-1.7-.91-.36-.62-.71-1.34-1.34-2.14-.58-.74-1.2-1.18-1.96-1.52-.02.02-.04.07-.04.09-1.07,1.2-1.87,1.96-2.79,2.74-.89.78-1.67,1.32-2.7,1.9-.69.42-1.83.91-2.57,1.16-.36.11-.62.09-.67-.07Z"/>
        <path class="cls-1" d="M35.32,13.24c0-.16.29-.25.56-.29.67-.09,1.09-.27,1.85-.65,1.21-.56,2.08-1.18,3.01-2.05,1.21-1.09,1.87-2.03,2.52-3.15.16-.27.31-.65.09-.83-.27-.22-.51-.33-.8-.45-.25-.11-.4-.27-.38-.42s.18-.25.58-.25.74.04,1.36.31c.65.27,1.41,1.16.78,2.21-.62,1.07-2.01,2.39-3.57,3.48-1.14.78-1.65,1.07-2.79,1.54-.89.38-1.58.58-2.5.69-.45.07-.71-.02-.71-.16ZM52.83,9.49c.54.83.6,1.72-.02,2.01-.62.27-1.29-.16-1.56-.85-.29-.78-.6-1.34-1.07-2.19-.49-.87-.89-1.36-1.63-1.99-.33-.25-.56-.47-.4-.6.16-.18.45-.04.83.13.71.31,1.34.76,2.12,1.43.78.65,1.2,1.18,1.74,2.05ZM51.58,4.68c-.47.22-.91.11-1-.09-.11-.2-.02-.49.31-.6.31-.11.54-.38.54-.71,0-.67-.49-.94-1.03-.8-.6.11-.69.8-.42,1.41.13.25.2.51.02.6-.18.11-.42-.09-.62-.54-.69-1.45.36-2.54,1.49-2.48,1.25.09,1.96.91,1.61,2.23-.11.45-.38.76-.89.98Z"/>
        <path class="cls-1" d="M61.75,11.5c.45-.2.78-.36,1.43-.74,1.21-.67,2.08-1.27,3.39-2.3,1.29-1.05,2.52-2.1,3.53-3.1s1.63-1.74,2.03-2.23c.4-.49.38-.78.25-1.03-.16-.25-.18-.58,0-.67.47-.29,1.32.22,1.61.58.27.33.36.78.2,1.07-.18.33-.49.58-.87.91-.4.33-1.14.94-1.87,1.63-.33.31-.69.65-1.05.98.25.04.54.09.8.22.49.22.83.49.89.85.09.36-.13.54-.22.89-.09.36-.09,1.29-.11,2.05-.04.71-.04,1.74-.02,2.68,0,.94.07,2.05.07,2.86.02.8-.22,1.32-.8,1.29-.54-.04-.78-.89-.71-1.29.07-.4.18-1.29.2-2.19.02-.87.07-1.99.11-2.97.02-.96.04-1.58.02-2.21,0-.62-.07-1.07-.27-1.43-.09-.16-.27-.27-.45-.31-.22.18-.42.36-.62.54-.76.67-2.12,1.58-3.17,2.25-1.07.67-1.67.96-2.3,1.27-.6.31-1.18.56-1.92.78-.31.09-.47-.29-.13-.4Z"/>
        <path class="cls-1" d="M85.28,16.21c-.04-.13.25-.31.47-.42.92-.42,1.61-.8,2.3-1.25.69-.42,1.41-.98,2.34-1.83.96-.85,1.58-1.52,2.25-2.28.69-.76,1.58-2.03,2.19-2.97.6-.96.98-1.63,1.12-2.16.13-.51-.2-.76-.85-.56-.42.13-.69.18-1.47.36-.78.18-1.32.29-2.03.31-.71,0-1.41-.25-1.81-.56-.54-.47-.65-.98-.4-1.23.2-.22.6-.25.89-.07.31.2.69.36,1.09.47.67.16,1.7.13,2.72-.04,1.03-.18,1.72-.4,2.01-.51.31-.11.71-.38,1.16-.13.47.25.76.67.85,1.45.09.8-.2,1.16-.65,1.52-.36.29-.65.56-1.21,1.27-.45.62-1.05,1.45-1.87,2.45.74.2,1.65.51,2.43,1.03.94.58,1.61,1.23,2.03,1.78.45.54.85,1.72.2,2.12-.69.42-1.36-.31-1.7-.91-.36-.62-.71-1.34-1.34-2.14-.58-.74-1.2-1.18-1.96-1.52-.02.02-.04.07-.04.09-1.07,1.2-1.87,1.96-2.79,2.74-.89.78-1.67,1.32-2.7,1.9-.69.42-1.83.91-2.57,1.16-.36.11-.62.09-.67-.07Z"/>
        <path class="cls-1" d="M122.22,15.92c-1.21.13-3.17.2-4.69.2-1.52-.02-3.08-.33-3.72-1.14-.62-.78-.69-1.92-.11-2.83.54-.83,1.25-1.43,2.25-2.05-.49-.27-.87-.76-.96-1.23-.13-.58.04-1.81.11-2.59.07-.8.16-1.67.18-2.32.02-.65-.13-1.23-.31-1.49-.2-.27-.4-.6-.31-.8.18-.36.65-.11.94.13s.76.85.94,1.27c.18.4.09,1-.04,1.45-.13.49-.36,1.12-.47,1.9-.13.76-.22,1.85-.25,2.45-.02.38.13.65.49,1.03,1.32-.8,2.83-1.54,4.15-2.21.36-.2.22-.65,0-.94-.22-.27.07-.47.42-.42.25.04.58.16.92.45.38.31.74,1.2.02,1.54-2.95,1.38-4.93,2.19-6.38,3.23-1.41,1-1.65,2.07-.92,2.9.6.65,1.85.91,3.03.89,1.18,0,2.48-.22,3.17-.45.71-.25,2.01-.38,2.37.18.33.54-.2.78-.83.85Z"/>
        <path class="cls-1" d="M136.96,7.89h4.69V.57c1.36.02,2.03.2,2.03.54,0,.18-.27.38-.83.58v6.2h4.8V2.87c1.25.04,1.9.22,1.9.56,0,.18-.27.36-.76.54v5.73h-1.14v-1.29h-4.8v7.7h5.78v-4.95c1.29.07,1.96.27,1.96.58,0,.18-.27.36-.78.54v5.84h-1.18v-1.52h-12.6v1.52h-1.2v-6.78c1.32.02,1.96.2,1.96.51,0,.18-.27.36-.76.54v3.73h5.62v-7.7h-4.69v1.43h-1.14V3.05c1.29.04,1.96.22,1.96.51,0,.18-.29.36-.83.54v3.79Z"/>
        <path class="cls-1" d="M167.21,1.51c2.12,2.81,5.15,4.75,8.7,6.13-.42.33-.78.74-1.03,1.25-3.64-1.96-6.36-4.31-8.08-7.03-.07.09-.09.16-.13.22-1.92,3.37-4.77,5.96-8.63,7.76l-.29-.42c3.81-2.19,6.6-5.22,8.34-9.15,1.23.22,1.85.47,1.85.74,0,.16-.29.27-.87.33l.13.16ZM164.53,11.86s0-.04.02-.07c0-.04,0-.07.02-.09h-5.51l-.27-.49h13.43l1.09-1.32.2.2c.47.4.87.8,1.23,1.2l-.25.4h-8.43c-.85,1.72-1.65,3.17-2.41,4.31-.04.09-.11.16-.16.22l1.14-.04c1.65-.07,3.75-.22,6.27-.38l.62-.04c-.69-.76-1.65-1.54-2.79-2.3l.29-.4c2.07.98,3.61,1.96,4.53,2.99.54.58.83,1.09.83,1.52,0,.51-.22.76-.69.76-.25,0-.45-.13-.6-.42-.27-.56-.65-1.09-1.09-1.61l-.42.04c-3.44.49-7.07.85-10.93,1.18-.11.47-.2.71-.36.71-.31,0-.62-.62-.91-1.9,1.49-.02,2.63-.04,3.41-.07.78-1.61,1.36-3.08,1.74-4.42ZM169.04,7.6l.96-1.14c.51.42.96.85,1.34,1.23l-.25.4h-8.9l-.2-.49h7.05Z"/>
        <path class="cls-1" d="M185.92,7.13c.16-.16.49-.09.8-.02.42.09.83.11,1.16.09.38-.02,1.16-.31,1.92-.67.78-.36,1.96-.62,3.08-.56,1.07.07,2.25.45,2.97,1.56.71,1.14.94,2.45.62,3.84-.31,1.38-1.12,2.7-2.37,3.61-1.29.94-2.16,1.27-3.44,1.72-1.05.36-1.61.49-2.25.56-.27.02-.4-.07-.4-.13,0-.11.04-.27.29-.31.4-.07,1.34-.36,2.32-.74,1-.4,2.36-1.16,3.19-2.3.83-1.12,1.21-2.48,1.25-4.08.04-1.61-.58-2.36-1.56-2.65-.98-.31-1.99-.11-2.63.09-.67.2-2.16.8-2.79,1.12-.65.31-1.32.18-1.79-.07-.45-.25-.6-.87-.38-1.05ZM189.2,1.8c.04-.13.29-.18.4-.2.4-.09.89-.09,1.49-.02.58.07,1.43.27,1.79.67.33.36.18.87-.16,1.03-.31.13-.69.07-.96.09-.25.02-.45.11-.62.31-.04.04-.49.51-.65.4-.11-.09.11-.58.2-.69.09-.11.18-.31.16-.42s-.22-.22-.42-.29c-.2-.07-.69-.31-.91-.4-.22-.13-.4-.27-.31-.47Z"/>
        <path class="cls-1" d="M224.87,6.17v-2.32h-4.86l-.18-.51h5.04V.41c1.34.04,2.01.2,2.01.49,0,.16-.29.36-.87.56v1.87h2.9l.94-1.27c.49.4.94.85,1.32,1.36l-.25.42h-4.91v2.32h2.54l.65-.83c.8.6,1.2,1,1.2,1.18,0,.09-.07.16-.16.2l-.47.36v3.19c0,.91-.54,1.38-1.58,1.36-.02-.33-.18-.56-.4-.69-.2-.09-.6-.2-1.16-.29v-.51c.36.07.76.09,1.16.09.47,0,.71-.07.8-.18.02-.11.07-.22.07-.38v-2.99h-2.65v5.02c1.38.56,2.48,1.14,3.35,1.81.76.6,1.14,1.14,1.14,1.61s-.2.69-.6.69c-.22,0-.45-.13-.65-.45-.71-1.07-1.78-2.1-3.23-3.06v6.16h-1.14v-6.69c-1.16,2.14-2.79,4.02-4.84,5.62l-.38-.38c2.45-2.3,4.19-4.89,5.22-7.72v-2.61h-2.5v5.26h-1.14v-6.29c.22.04.67.22,1.32.51h2.32ZM232.14,14.11V2.71c1.27.07,1.9.25,1.9.56,0,.16-.25.33-.78.54v10.31h-1.12ZM232.5,16.5c.85.09,1.65.13,2.39.13.51,0,.76-.2.76-.6V.68c1.29.07,1.94.25,1.94.58,0,.18-.27.36-.76.56v14.92c0,1.03-.65,1.54-1.94,1.54,0-.42-.2-.74-.6-.89-.25-.09-.85-.25-1.78-.38v-.51Z"/>
        <path class="cls-1" d="M244.41,5.41c1.41.56,2.12,1.23,2.12,2.03,0,.45-.2.65-.62.65-.29,0-.47-.18-.54-.51-.18-.69-.56-1.29-1.18-1.81l.22-.36ZM248.98,4.34l-2.05,8.83s0,.02-.02.07c0,.02-.02.04-.02.07-.11.47-.18.83-.18,1.09,0,.25.04.51.13.85.22.83.31,1.47.31,2.01,0,.78-.27,1.18-.78,1.18s-.76-.22-.76-.69c0-.07,0-.13.02-.2.11-1.12.16-1.85.16-2.23,0-.8-.18-1.38-.56-1.67-.2-.16-.51-.29-.96-.36v-.51c.27.04.49.07.65.07.56,0,.98-.27,1.18-.76.76-1.83,1.52-4.53,2.39-8.03l.49.29ZM245.41,1.02c1.58.45,2.39,1.09,2.39,1.96,0,.22-.13.45-.38.62-.04.04-.16.07-.22.07-.33,0-.54-.22-.65-.62-.18-.62-.62-1.18-1.34-1.67l.2-.36ZM248.18,11.17l-.29-.49h3.52v-2.39c1.16.04,1.74.2,1.74.42,0,.16-.22.31-.67.47v1.49h1.92l.74-1c.38.33.71.71,1.05,1.12l-.22.38h-4.35c0,.65-.04,1.2-.11,1.72h2.32l.6-.76c.71.56,1.07.91,1.07,1.05,0,.07-.07.13-.16.25l-.38.29c-.02,1.52-.2,2.63-.54,3.41-.29.67-.87.98-1.72.98-.02-.45-.58-.8-1.65-1v-.51c.71.13,1.29.2,1.74.2s.71-.29.85-.87c.16-.67.25-1.52.29-2.54h-2.5c-.38,2.32-1.54,3.97-3.44,5.04l-.29-.4c1.81-1.34,2.72-3.61,2.79-6.85h-2.32ZM251.01,2.91c.22-.85.4-1.65.47-2.45,1.16.16,1.74.36,1.74.6,0,.16-.2.27-.67.38-.25.47-.54.96-.94,1.47h2.03l.65-.83c.71.58,1.07.96,1.07,1.12,0,.07-.04.13-.13.2l-.4.31v4.93h-1.05v-.67h-3.37v.76h-1.07V2.4c.38.16.74.33,1.12.51h.56ZM253.78,5.12v-1.7h-3.37v1.7h3.37ZM253.78,5.64h-3.37v1.85h3.37v-1.85ZM262.84,17.06c-.47.31-.83.65-1.09,1.05-1.27-1.29-2.28-2.59-3.01-3.93,0,0-.04.09-.13.25-.83,1.54-2.1,2.88-3.79,4.04l-.33-.4c1.56-1.27,2.77-2.94,3.73-5.02-.76-1.74-1.27-3.86-1.56-6.36-.36.89-.8,1.78-1.38,2.68l-.42-.27c1.07-2.23,1.81-5.13,2.16-8.63,1.25.22,1.87.49,1.87.78,0,.18-.27.31-.83.45-.16.91-.4,1.92-.69,2.97h3.5l.8-1.25.11.09c.4.4.74.85,1.03,1.29l-.2.36h-1.56s-.02.13-.02.27c-.02.13-.02.22-.02.29-.25,2.94-.83,5.4-1.74,7.41.8,1.34,2.01,2.65,3.59,3.95ZM259.82,5.48l.02-.33h-2.65l-.09.25s-.02.02-.02.07c-.04.04-.04.11-.04.18.29,2.43.83,4.55,1.63,6.34.62-1.94,1-4.1,1.16-6.49Z"/>
        <path class="cls-1" d="M270.82,4.07h.65l.04-.13c.29-1,.56-2.23.76-3.64,1.29.27,1.92.54,1.92.8,0,.16-.27.31-.8.4-.36.83-.8,1.67-1.34,2.57h2.12l.8-1.05c.74.67,1.12,1.12,1.12,1.29,0,.07-.02.13-.09.18l-.51.38v11.42h-1.14v-1.56h-3.7v2.07h-1.14V3.43c.2.07.54.27,1.05.51l.27.13ZM274.34,8.96v-4.37h-3.7v4.37h3.7ZM274.34,9.47h-3.7v4.77h3.7v-4.77ZM284.7,4.32l.78-1c.83.74,1.25,1.18,1.25,1.38,0,.09-.07.16-.13.2l-.56.36c-.02,5.64-.33,9.39-.96,11.27-.38,1.18-1.2,1.78-2.5,1.78,0-.38-.18-.65-.54-.8-.42-.2-1.32-.38-2.61-.6v-.54c1.43.16,2.48.25,3.19.25s1.16-.29,1.38-.89c.54-1.56.83-5.2.85-10.89h-5.71c-.74,2.05-1.7,3.81-2.9,5.26l-.4-.27c1.54-2.68,2.57-5.84,3.06-9.57,1.36.2,2.05.45,2.05.78,0,.18-.29.31-.87.42-.22,1-.45,1.99-.76,2.86h5.38ZM278.58,7.8c2.12,1.43,3.19,2.7,3.19,3.88,0,.54-.25.83-.74.83-.36,0-.56-.27-.67-.8-.22-1.14-.94-2.32-2.12-3.55l.33-.36Z"/>
        <path class="cls-1" d="M295.13,13.18c-.16-.36.02-.87.22-1.27.22-.4.42-.83.71-1.41.31-.56.89-2.3,1.2-3.15.16-.36.29-.8.45-1.25-.09-.02-.2-.02-.29-.02-.49-.09-.87-.25-1.29-.51-.33-.22-.54-.49-.42-.65.11-.13.47,0,.65.09.27.11.51.2.98.29.18.04.38.07.67.07.09-.29.2-.51.27-.69.29-.56.38-.91.42-1.29.07-.38-.13-.83-.27-1.09-.16-.27-.13-.42.02-.56.18-.16.62,0,.83.16.2.18.45.36.6.83.07.2.07.4.04.65.13.04.25.09.38.13.31.11.78.31,1.25.45s.76.27.92.45c.18.18.22.47.04.69-.18.22-.56.4-1.25.6-.71.2-1.52.36-2.3.4h-.07s-.02.09-.04.11c-.11.29-.67,1.74-.94,2.41-.25.65-.85,2.16-1.07,2.79-.25.62-.29,1.81-.31,2.21-.02.4-.38.47-.69.31-.29-.13-.56-.38-.71-.74ZM299.3,5.17c.4-.09.76-.22,1.14-.38.33-.13.49-.31.47-.38-.02-.09-.25-.2-.42-.31-.13-.07-.4-.2-.62-.33-.04.2-.13.4-.2.6-.09.22-.2.51-.36.8ZM304.68,12.95c-.04-.4-.13-.76-.2-1.07-.11-.62-.29-1.47-.4-2.05-.13-.58-.02-1.14.16-1.47.16-.31.45-.56.58-.47.18.09.07.31-.04.71-.11.42-.16,1.07-.02,1.74.13.67.38,1.67.58,2.43.04.11.07.22.11.33.87.22,1.49.51,1.72.67.25.13.56.42.67.8.11.4,0,.78-.2.85-.22.07-.54-.11-1.05-.4-.25-.13-.54-.31-.85-.49.02.18.04.33.04.42,0,.38-.09,1.45-.96,1.85-1.09.49-2.54.29-3.23-.07s-1.18-1.12-1.03-2.21c.13-.89.94-1.49,2.12-1.63.76-.07,1.36-.04,2.01.04ZM304.66,14c-.6-.25-1.16-.4-2.03-.36-.69.02-1.34.45-1.38.98-.07.49.27.98.89,1.18.65.2,1.23.18,1.83-.07.6-.22.74-.85.78-1.63v-.04s-.07-.04-.09-.07ZM309.28,6.82c.16.47-.11.74-.31.85-.18.11-.56.11-.74.02-.18-.09-.42-.18-.71-.2-.27-.04-.62-.02-1.03-.02-.42-.02-.6-.09-.6-.18,0-.04.09-.16.27-.22.18-.09.54-.2.91-.22.36-.02.47-.18.29-.42-.18-.29-.58-.67-1.03-1.05-.45-.38-.8-.62-1.03-.69-.22-.09-.31-.25-.25-.33.11-.13.42-.13.78-.04.33.09.6.2,1.12.45.54.25,1.07.54,1.5.91.42.36.65.67.83,1.16Z"/>
        <path class="cls-1" d="M330.89,2.45l.83-1.03c.87.69,1.32,1.16,1.32,1.36,0,.09-.07.18-.16.25l-.56.36v14.28h-1.23v-1.54h-9.19v1.74h-1.25V1.69c.31.16.83.4,1.47.76h8.77ZM321.9,2.94v5.89h9.19V2.94h-9.19ZM331.09,15.63v-6.31h-9.19v6.31h9.19Z"/>
        <path class="cls-1" d="M354,14c0,.51-.22.74-.67.74-.2,0-.42-.18-.74-.54-1.12-1.27-2.68-2.32-4.68-3.17l.18-.4c1.32.33,2.48.71,3.44,1.18,1.18-1.38,2.28-3.03,3.3-4.93l-5.71.47-.11.16c-1.32,1.78-3.01,3.37-5.04,4.8l-.33-.31c2.28-1.9,4.01-3.9,5.2-6.09.54-.96.78-1.63.78-2.03,0-.36-.22-.65-.62-.91l.29-.4c1.34.47,2.03.94,2.03,1.43,0,.09-.07.22-.18.31-.2.18-.4.42-.58.78-.25.47-.6,1.05-1.03,1.74l5.26-.45.62-.71c.94.76,1.41,1.25,1.41,1.52,0,.11-.07.16-.2.2l-.58.18c-1.41,1.7-2.74,3.19-4.04,4.51,1.34.71,2.01,1.36,2.01,1.94Z"/>
      </g>
      <g>
        <path class="cls-2" d="M48.66,66.74c-4.5.58-4.79,1.02-4.79,5.3v6.1c0,2.54.07,4.94.44,6.9-4.5,1.02-10.39,2.61-16.49,2.61-16.49,0-26.51-10.24-26.51-24.84,0-15.33,12.49-24.48,27.02-24.48,7.41,0,12.86,1.45,15.11,1.82.15,2.69.51,7.12,1.09,11.69l-2.18.44c-1.74-6.17-3.85-8.79-8.42-10.31-1.67-.58-4.65-.94-6.75-.94-11.11,0-18.3,7.63-18.3,20.92,0,11.55,5.96,23.02,20.05,23.02,2.47,0,4.72-.51,6.17-1.23,1.53-.87,2.47-1.67,2.47-4.65v-5.96c0-5.3-.58-5.88-7.55-6.39v-2.11h18.67v2.11Z"/>
        <path class="cls-2" d="M84.65,86.57v-2.03c4.72-.58,5.3-1.31,4.29-4.07-.94-2.83-2.4-6.46-3.92-11.04h-15.69c-1.16,3.27-2.25,6.1-3.27,9.08-1.6,4.72-.58,5.3,5.38,6.03v2.03h-16.78v-2.03c4.58-.58,5.74-1.09,8.28-7.63l15.04-38.13,2.32-.44c4.58,12.42,9.59,26.15,14.16,38.71,2.32,6.32,2.98,6.9,8.13,7.48v2.03h-17.94ZM77.39,47.85c-2.32,6.25-4.79,12.86-6.97,18.59h13.58l-6.61-18.59Z"/>
        <path class="cls-2" d="M154.64,87.15c-.94,0-1.74-.07-2.69-.15-5.3-.36-8.13-1.74-11.33-6.25-2.69-3.7-5.3-8.28-7.63-11.98-1.45-2.32-2.4-2.76-6.1-2.76h-2.54v11.4c0,6.17.8,6.54,6.61,7.12v2.03h-19.39v-2.03c6.03-.65,6.54-.94,6.54-7.12v-28.98c0-6.17-.8-6.39-6.54-7.05v-2.03h18.52c5.3,0,8.86.65,11.62,2.47,2.98,1.89,4.94,5.16,4.94,9.59,0,6.25-4,10.17-9.37,12.49,1.31,2.25,4.43,7.12,6.61,10.39,2.69,3.85,4.07,5.67,5.74,7.48,1.96,2.11,3.63,2.91,5.3,3.34l-.29,2.03ZM127.84,63.54c3.78,0,6.17-.58,7.99-2.11,2.83-2.11,4-5.01,4-8.93,0-7.77-5.16-10.6-10.75-10.6-2.11,0-3.34.29-3.85.73-.65.51-.87,1.23-.87,3.12v17.79h3.49Z"/>
        <path class="cls-2" d="M183.8,39.36c10.24,0,16.71,2.03,21.21,6.32,3.56,3.49,6.17,8.57,6.17,15.54,0,8.5-3.49,15.4-9.08,19.61-5.52,4.14-12.57,5.74-21.5,5.74h-17v-2.03c6.25-.58,6.54-1.09,6.54-7.05v-28.98c0-6.25-.87-6.54-6.54-7.12v-2.03h20.19ZM176.47,76.91c0,5.45,2.32,6.97,7.77,6.97,13.07,0,19.76-8.93,19.76-21.64,0-7.92-2.69-13.95-8.42-17.43-3.34-2.11-7.55-2.91-12.42-2.91-3.27,0-5.01.44-5.74,1.02-.65.44-.94,1.23-.94,4.07v29.92Z"/>
        <path class="cls-2" d="M258.11,75.02c-.44,1.89-2.4,9.37-3.12,11.55h-35.3v-2.03c6.75-.51,7.26-1.16,7.26-7.12v-28.69c0-6.46-.8-6.83-6.25-7.34v-2.03h22.23c6.83,0,9.66-.07,10.53-.15.07,1.82.36,7.26.65,11.11l-2.18.36c-.65-2.47-1.38-3.99-2.18-5.52-1.16-2.4-2.83-2.91-7.19-2.91h-6.9c-2.25,0-2.4.22-2.4,2.32v16.05h8.06c5.45,0,5.81-1.09,6.68-6.03h2.25v14.96h-2.25c-.94-5.23-1.53-5.96-6.75-5.96h-7.99v14.45c0,5.08,1.6,5.52,5.23,5.59h6.75c4.43,0,5.16-.65,6.75-2.54,1.38-1.53,2.91-4.5,3.92-6.68l2.18.58Z"/>
        <path class="cls-2" d="M317.67,41.39c-4.65.51-6.17,1.23-6.39,4.58-.07,2.32-.22,5.37-.22,12.13v29.13h-2.76l-31.09-37.99v18.16c0,6.54.22,9.81.36,11.91.15,3.7,1.96,4.79,7.19,5.23v2.03h-17.65v-2.03c4.5-.36,6.25-1.45,6.54-5.01.22-2.32.36-5.59.36-12.2v-18.52c0-2.03-.15-3.2-1.45-4.79-1.38-1.82-2.91-2.25-6.46-2.61v-2.03h10.89l30.8,36.53v-17.79c0-6.75-.15-9.88-.36-12.06-.22-3.27-1.89-4.29-7.7-4.65v-2.03h17.94v2.03Z"/>
        <path class="cls-2" d="M351.55,50.4c-1.23-4.79-3.27-9.51-10.1-9.51-5.67,0-7.63,4.14-7.63,7.92,0,5.01,3.2,7.55,9.22,10.68,8.72,4.5,12.49,7.84,12.49,14.74,0,7.63-6.61,13.44-15.98,13.44-4.36,0-8.13-1.23-11.11-2.4-.58-2.03-1.45-6.97-1.96-10.89l2.25-.58c1.45,4.87,4.65,11.19,12.2,11.19,5.23,0,8.43-3.63,8.43-8.35,0-5.59-2.98-7.84-9.37-11.33-7.63-4.14-11.91-7.63-11.91-14.38s5.38-12.57,14.96-12.57c4.07,0,8.06,1.09,9.59,1.38.29,2.61.58,5.52,1.16,10.24l-2.25.44Z"/>
        <path class="cls-2" d="M41.69,160.04v-2.03c5.96-.58,6.17-1.02,6.1-8.79l.07-29.63c-5.96,13.29-15.54,34.06-18.09,40.46h-1.89c-2.47-6.61-10.68-26.58-16.2-39.73-1.24,25.42-1.31,31.16-1.31,32.54.07,4.07,1.89,4.65,6.83,5.16v2.03H0v-2.03c4.21-.44,5.96-1.31,6.54-5.23.44-3.2.51-5.81,2.4-32.32.29-3.78-.44-5.01-6.83-5.59v-2.03h12.64l16.05,36.82,17.21-36.82h12.71v2.03c-6.25.73-7.04,1.38-6.9,6.46l.29,27.89c.29,7.77.51,8.13,6.9,8.79v2.03h-19.32Z"/>
        <path class="cls-2" d="M110.18,148.49c-.44,1.89-2.4,9.37-3.12,11.55h-35.3v-2.03c6.75-.51,7.26-1.16,7.26-7.12v-28.69c0-6.46-.8-6.83-6.25-7.34v-2.03h22.23c6.83,0,9.66-.07,10.53-.15.07,1.82.36,7.26.65,11.11l-2.18.36c-.65-2.47-1.38-3.99-2.18-5.52-1.16-2.4-2.83-2.91-7.19-2.91h-6.9c-2.25,0-2.4.22-2.4,2.32v16.05h8.06c5.45,0,5.81-1.09,6.68-6.03h2.25v14.96h-2.25c-.94-5.23-1.53-5.96-6.75-5.96h-7.99v14.45c0,5.08,1.6,5.52,5.23,5.59h6.75c4.43,0,5.16-.65,6.75-2.54,1.38-1.53,2.91-4.5,3.92-6.68l2.18.58Z"/>
        <path class="cls-2" d="M157.6,148.49c-.44,1.89-2.4,9.37-3.12,11.55h-35.3v-2.03c6.75-.51,7.26-1.16,7.26-7.12v-28.69c0-6.46-.8-6.83-6.25-7.34v-2.03h22.23c6.83,0,9.66-.07,10.53-.15.07,1.82.36,7.26.65,11.11l-2.18.36c-.65-2.47-1.38-3.99-2.18-5.52-1.16-2.4-2.83-2.91-7.19-2.91h-6.9c-2.25,0-2.4.22-2.4,2.32v16.05h8.06c5.45,0,5.81-1.09,6.68-6.03h2.25v14.96h-2.25c-.94-5.23-1.52-5.96-6.75-5.96h-7.99v14.45c0,5.08,1.6,5.52,5.23,5.59h6.75c4.43,0,5.16-.65,6.75-2.54,1.38-1.53,2.91-4.5,3.92-6.68l2.18.58Z"/>
        <path class="cls-2" d="M207.79,124.23c-.65-2.32-1.52-4.72-2.32-6.03-1.16-1.96-1.89-2.47-5.88-2.47h-7.26v35.37c0,5.67.58,6.46,7.48,6.9v2.03h-21.14v-2.03c6.75-.44,7.34-1.16,7.34-6.9v-35.37h-6.61c-4,0-5.16.44-6.39,2.61-.87,1.45-1.45,3.2-2.4,5.88h-2.18c.44-4.43.87-9.01,1.09-13.07h1.67c1.09,1.74,1.89,1.67,3.92,1.67h28.76c2.03,0,2.62-.29,3.7-1.67h1.74c0,3.41.29,8.64.65,12.86l-2.18.22Z"/>
        <path class="cls-2" d="M247.95,123.87c-1.23-4.79-3.27-9.51-10.1-9.51-5.67,0-7.63,4.14-7.63,7.92,0,5.01,3.2,7.55,9.22,10.68,8.72,4.5,12.49,7.84,12.49,14.74,0,7.63-6.61,13.44-15.98,13.44-4.36,0-8.13-1.23-11.11-2.4-.58-2.03-1.45-6.97-1.96-10.89l2.25-.58c1.45,4.87,4.65,11.19,12.2,11.19,5.23,0,8.43-3.63,8.43-8.35,0-5.59-2.98-7.84-9.37-11.33-7.63-4.14-11.91-7.63-11.91-14.38s5.38-12.57,14.96-12.57c4.07,0,8.06,1.09,9.59,1.38.29,2.61.58,5.52,1.16,10.24l-2.25.44Z"/>
      </g>
      <g>
        <g>
          <path class="cls-4" d="M310.52,106.45c1.8,1.57.68,4.88.13,6.87-.81,2.99-1.97,5.9-3.34,8.79-1.04,2.07-2.04,4.53-3.66,6.4-1.47,1.72-4.24,2.39-2.81-.62.52-.58.91-7.74,2.23-8.1-.12.24-.33,2.02-.51,2.99,1.33-4.18,4.65-16.27-1.42-16.74-2.44-.15-5.26,1.85-7.13,3.31-2.12,1.65-3.98,3.71-5.48,5.94,2.14-3.06,4.96-5.65,8.34-7.54,1.47-.82,3.47-1.92,5.14-1.3,1.85.85,1.53,2.57,1.81,3.98-.78-2.23-.8-4.63-4.31-3.7-2.89.92-5.5,2.93-7.58,4.97-3.62,3.58-6.36,8.45-7.1,13.42-1.6,11.09,9.2,18.52,15.93,25.58-3.04-2.74-6.32-5.3-9.26-8.07,2.26,2.31,3.63,4.74,6.14,6.86,3.28,2.56,6.56,4.81,9.08,8.14,5.31,7.16,5.02,14.58.53,22.17l1.41-1.9c1.03,2.64-6.17,8.99-7.86,10.38-4.78,4.09-11.91,7.09-18.39,6.36-9.31-1.14-10.95-11.69-9.2-19.12.42-1.75,4.18-12.9,7.43-10.13,1.33,1.14-.27,6.01-.32,7.63-.2,1.78-.1,3.54.09,5.28.36,3.08.99,6.67,3.26,8.98,2.67,2.87,6.63,1.48,9.55-.55,3.96-2.89,6.83-7.41,7.88-12.09.51-2.38.56-4.91-.07-7.29-.31-.89-.69-1.66-1.19-2.49-.34-.38-1.18-.99-1.21-1.68.13.36.71.85,1.05,1.23-.4-.56-.78-1.03-1.12-1.71.03.09-.59-.49-.68-.46-.5-.53-1.02-1.14-1.43-1.7l-3.07-3.43c-3.48-3.99-7.29-7.77-10.95-11.69-2.67-2.87-5-6.26-6.47-9.86-.37-.77-2.75-6.05-1.27-6.57-.09.03.13,1.56.22,1.53-.2-1.74-.15-3.66.18-5.68l-.33,1.12c-.64-3.29,2.08-7.95,3.6-10.69,2.23-3.99,5.53-7.56,9.4-10.12,4.05-2.63,8.27-3.31,13.02-3.07,1.88.04,3.7.2,5.37.82,2.01.7,3.03,2.14,4.37,3.58ZM274.99,173.47c-2.33,7.23-1.85,15.69,4.99,19.8-5.13-3.11-6.92-13.21-4.99-19.8ZM285.97,134.22c-.13-.36-.19-.84-.44-1.25l.44,1.25Z"/>
          <path class="cls-4" d="M363.58,131.52c.11,2.67-1.92,4.28-3.08,6.29-.88,1.61-2.29,3.51-3.42,5.01-.92,1.23-2.3,1.41-2.91,2.63-.09.03-.12-.06-.12-.06-.18.36-.3.91-.82,1.49-.64.83-.82,1.49-1.37,2.29-.98,1.35-2.03,1.31-2.79,2.08l.09-.03c-.55.49-3.07,6.89-3.25,7.56-.91,2.12-1.98,4.1-2.83,6.11-.76,1.67-2.22,5.49-4.25,6.2-2.21.78-5.62-2.44-6.77-3.94-1.68-2.12-.2-1.74,1.25-2.64,2.03-1.31,3.02-4.67,3.97-6.71,1.22-2.73,2.19-5.58,3.37-8.4.49-.97.97-1.95,1.21-3.03,0-.3-.07-1.98.3-2.11,0,0,.03.39-.06.72l.27-1c-.21.28-.07-1.68-.01-1.8.12-1.14.36-2.23.57-3.41.39-2.14.9-4.53.64-6.74-.07-1.08-.65-5.09-2.55-4.02-.71.35-3.82,5.05-4.04,5.03-.12-.06.33-.82.21-.88-.49.97-1.04,2.07-1.46,3.22.12-.24.27-.4.43-.55-.52.88-4.39,13.47-4.72,14.59-.79,2.48-1.23,5.04-1.87,7.67-.36,1.33-.54,2.9-1.12,4.2-.34.52-.83.89-.98,1.35-.54,1.69-.65,4.04-1.01,5.97-.51,2.38-.86,4.91-1.47,7.33-.42,2.35-.25,4.6-.24,7-.02,1.71-.2,3.28-.16,4.87,0-.3.09-.63.21-.88.25-.19.67,3.37.64,3.58l.61,4.4c.39,3.17.99,6.37,1.47,9.51.28,1.1,1,3.16.4,4.37-1.37,2.59-5.05.37-6.41-.85-3.9-3.44-4.13-11.18-5.03-16.08-.6-3.2-1.06-6.55-.86-9.82.15-1.05.36-1.93.38-3.04-.03-.09-.5-2.03-.26-2.21.03.09.15.15.19.24-.06-.18-.03-.39-.04-.69-.18.96-.47-1.34-.5-1.43-.07-1.08-.01-2.1-.05-3.09.05-1.92-.05-3.69-.28-5.52-.07-.78-.39-9.08.59-9.23.18-.06.03.69.16.75.09-.93.08-1.83.08-2.73-.03.21-.06.42-.21.58,0,0,.15-10.48.18-11.59.11-2.04-.05-3.99-.07-6.09-.03-.39.15-1.36-.01-1.8-.13-.36-.65-.37-.78-.73-1-2.26-.37-5.18,2.96-5.45,1.69-.19,3.24.67,4.36,1.78,1.36,1.23,1.12,2.01,1.31,3.45l.12-.54c.37-.13.95,3.88.36,3.98-.09.03-.19-1.43-.29-1.7.14,2.76.16,5.46.17,8.16l-.03-.09-.02,1.71c0,.3.03.69-.06,1.02-.02,7.02.2,18.88.31,20.34.24-1.69.57-3.41.93-5.04-.42,1.45-.76,2.57-.76,2.57,0,0,4.15-17.7,4.6-19.36,1.63-5.98,3.19-12.15,5.35-18.12.97-2.55,2.55-7.21,5.65-8.1,5.11-1.39,8.22,3.63,9.38,7.23-.06-.48-.25-1.31-.04-1.29,1.63.23,1.83,7.58,1.84,8.78.02,3.3-.51,6.8-1.2,10.15,1.5-1.63,2.75-3.37,4.1-5.15,1.22-1.53,3.22-2.34,4.57-3.51-.09.03-.31,0-.34-.08-.53-.62,3.77-3.73,4.29-4.01.21-.28.68-.44,1.01-.66ZM318.38,157.73c.44.65-.06,4.83-.09,5.34-.19,4.18-.75,8.48-.63,12.65.15,4.56,0,9.43.52,14.15-.27-3.41-.26-6.93-.06-10.2.29-3.91.42-7.97.36-11.96-.04-1.89-.08-3.78-.03-5.7.09-1.23.45-2.86.13-4.06l-.03-.09s-.03-.09-.15-.15ZM318.29,190.54q-.06.12-.03.21.06-.12.03-.21ZM323.64,162.39c.06-1.02-.01-2.1-.11-3.27-.02,1.11.07,2.28.11,3.27ZM323.65,157.98s.09-.03.06-.12l-.06.12ZM323.97,145.03c.06-.12.12-.24.06-.42l-.06.42ZM324.12,143.68l-.09.93.09-.93ZM324.12,143.68c-.03-.39-.03-.69.03-.81l-.03.81ZM329.61,144.86q.03.09-.03.21l.03.09c.03-.21.06-.42,0-.3ZM330.15,143.16l.88-3.11c-.36,1.03-.6,2.12-.88,3.11ZM350.5,144.74c-.21.28-.64.53-.64.83l.64-.83Z"/>
          <path class="cls-4" d="M380.56,131.47c-.78,2.78-1.51,5.44-2.51,8.2-1,3.06-1.96,7.71-4.94,9.55-.71.35-4.53.69-4.62.12l.18-.06c-.86-.1.16.45-1.23.03-1.02-.24-1.85-.85-2.69-1.46-1.49-.98-3.18-1.69-4.12-3.16-.25-.41-1.56-3.56-.82-3.82.18-.06.16.45.25.41l-.29-1.7c-.03.21,0,.3-.15.45-.4.04-.87-6.91-.88-7.51.08-2.13-.3-4.4,1.17-6.12,1.07-1.38,2.89-1.82,4.89-1.72.83,0,3.27.16,3.58,1.05.19.54-.24.79-.42,1.15.06-.12.25-.19.34-.22.34.08-.39,2.44-.6,2.42-.18.06-.06-.48-.07-.78-.78,3.38-1.16,7.02-1.17,10.54.05-1.32.61-7.13.91-7.14.31,0-2.3,12.94,1.37,13.35,1.73.19,3.43-2.91,4.17-4.07,1.28-1.95,3.09-4.49,3.84-6.46-.12.24-.31.31-.58.41-.53-.32,2.02-7.83,2.66-8.65.49-.67,1.66-1.48,2.25-.39.96,1.57,0,4.11-.52,5.6ZM360.12,119.6c-.19-.24-1.43-2.9-.26-2.81-.09-.27.54-2,.4-.64.45-1.36.75-2.87.93-4.44l-.54,1.99c.27-1.9.4-5.65.27-6.31-.03-.09-.5-.83-.38-1.07-2.19-.03-1.18-1.59-.57-2.51-.18.06-.28.1-.43-.05-.49-.23.52-.88.76-1.07,1.1-.99,2.86-1.31,4.28-1.1,1.23.27,2.63,1.28,3.37,2.22.78,1.03.32,2.69-.26,3.7-.24.49-.8.98-1.13,1.5-.33.82.04,1.59-.2,2.38-.12.54-.61.92-.73,1.46-.27.4-.18.66.19.84-.31.31-.52.58-.7.95-.42,1.75-.69,2.75-1.52,3.94.8-.98,1.25-1.74,1.77-3.23.42-1.15,1.04-2.07,1.99-2.9-.58,1.31-.35,2.53-1.21,3.63-.89,1.01-.31-.59-1.13.9,0,0,.52-.28.31,0-.58,1.01-1,2.46-1.95,3.29-.49.37-.73.86-1.47.82-.77-.13-.62-.58-.9-.79,0,0-.84-.61-.87-.7ZM359.95,116.76c.09-.03.12.06.12.06q.06-.12.03-.21-.06.12-.15.15ZM360.61,113.92c-.06.42-.18.66-.18.66l.18-.66ZM366.66,142.07l.07.78v-.6s-.03-.09-.03-.09q.03-.21-.03-.09Z"/>
          <path class="cls-4" d="M407.2,129.43c-1.72,6.02-4.61,12.25-7.91,17.61-1.92,3.08-4.71,6.37-8.55,7.22-1.17.21-2.4.24-3.42-.3-.74-.34-4.45-2.95-4.18-3.64,0,0,.68.76.81.82l-.99-1.36c.19.54-1.21-1.08-1.33-1.44-.59-1.1-1.03-2.34-1.44-3.5-.69-2.26-1.07-4.53-1.73-6.71-.6-2-.79-4.03-.81-6.13-.06-.48-.13-5.97.46-6.08.09-.03.1.87.19.84.06-1.02-.01-2.1.1-3.24l-.21.58c-.12-.06.91-7.74,1.06-8.49.66-2.84,1.69-5.51,3.44-7.92,1.16-1.71,2.72-3.16,4.85-3.61,2.62-.52,3.85.35,5.43,1.9,1.46,1.49,2.57,2.6,3.2,4.99.38,1.37.82,3.22.64,4.79-.21,1.48-2.47,4.18-4.29,3.71-1.48-.38-.75-1.24-.54-2.12l-.34.52s-.31-5-.12-5.07c.09-.03.41,2.06.44,2.15-.04-1.29-1.63-9.65-3.92-6.14-.89,1.31-.97,3.45-1.2,4.83-.32,2.62-.46,5.17-.51,7.7.1-3.24.39-6.55,1.14-9.73.21-1.18.48-2.47,1.3-3.37.06-.12.89-.11.74.04-.06.12-.56-.11-.68.14-1.43,2.71-1.72,5.72-2.01,8.73-.52,6.5-.48,13.1.61,19.44.54,3.02,1.24,6.48,2.86,9.02.4.56.9,1.39,1.67,1.52,1.94.52,3.75-2.32,4.72-3.66,1.44-2.11,3.06-4.28,4.06-6.44-.21.28-.43.55-.67.74-.18.06.82-2.69.94-2.94.61-1.22,1.09-2.49,1.58-3.76.85-2.3,1.79-4.64,2.61-7.03.42-1.15,2.62-10.24,5.09-9.11,1.92,1.03-.21,5.59-.64,7.04-.88,2.51-1.79,4.94-2.45,7.48ZM380.27,124.46c-.14,1.96-.81,3.89-.46,5.48-.06-.48.58-1.31.64-2.03.09-.93.02-2.01-.11-2.97-.03-.09,0-.3-.06-.48ZM380.27,134.48c-.4.34-.24.79-.09,1.23-.06-.18,0-.6,0-.9l.09-.33ZM380.31,136.07c0,1.2.41,2.36.88,3.4-.34-.98-.75-2.14-.6-2.9.12-.24-.28-.5-.28-.5ZM386.13,125.81c-.03.21.03.39.1.57q-.03-.09.03-.21l-.13-.36ZM386.27,127.36c.04,1.59.08,3.18.21,4.74l-.21-4.74Z"/>
          <path class="cls-4" d="M439.58,107.13l-1.57,4.66-2.79,8c-.73,2.06-1.76,4.13-2.49,6.19-.76,2.27-1.3,4.57-2.27,6.81-1.06,2.28-2.38,4.74-4.18,6.68-1.29,1.35-2.73,1.96-4.55,2.1-2.62.22-5.24-.46-7.44-1.7-.65-.37-1.27-.66-1.61-1.34-.28-.5-.59-1.1-.81-1.72-.47-1.04-.38-1.97-.57-3.11-.22-1.22-.05-2.49-.27-3.71-.25-1.31-.29-2.6-.52-3.83-.28-1.1-.88-2.2-.98-3.37-.07-.78.24-1.69.23-2.59-.09.63-.36,1.33-.3,1.81-.03.81.04,1.59-.02,2.31-.03.81.1,1.47.08,2.28-.09.93-.2,1.78.02,2.7.19.84.56,1.61.75,2.44.1.87.13,1.56.41,2.36.09.27.47.74.53.92.13.36.1.87.25,1.31.28.8.75,1.54,1.15,2.4-2.35-1.98-2.95-4.58-3.43-7.41-.48-2.84-1.02-5.56-1.28-8.37-.65-5.69.02-11.74,2.06-17.16,1.57-4.66,4.39-8.76,9.68-9.62,1.97-.29,4.28-.2,6.01.9,1.89,1.24,2.55,3.42,2.59,5.61.02,3.9-2.05,7.74-4.09,11.06-.85,1.4-1.8,2.84-2.9,4.13-.73.86-1.62,1.57-2.51,2.29l-1.38,1.09c-.58.41-.71.35-.8.98-.15,1.05.44,1.85.57,2.81.22,1.23.32,2.39.45,3.65.29,2.3.52,5.33,1.86,7.37,2.61,4.19,7.89-5.58,8.83-7.31.64-1.13,1.16-2.31,1.71-3.41.27-.7.67-1.34.85-2,0,0,.03-.51-.03-.69.51-2.08,1.42-4.21,2.24-6.3,1-2.46,1.79-4.94,2.64-7.54.42-1.45,1.2-5.43,3.52-3.54l.03.09q.12.06.09-.03c.62.58.5,1.13.23,1.83ZM416.62,117.6c2.42-2.55,4.37-5.55,5.65-8.7l.88-2.51c.12-.54.49-.97.48-1.57-.06-.48-.37-.77-.47-1.34l-.29-2c-.22-.93-1.41-3.12-2.7-2.36-.58.41-.95,1.44-1.16,2.01l-.91,2.73c-.97,3.45-.91,6.84-1.3,10.18,0,0,.03.09,0,.3-.15,1.05-.08,2.13-.2,3.28Z"/>
        </g>
        <path class="cls-3" d="M331.25,185.58c45.05-20.91,77.39-30.67,127.04-36.94"/>
        <path class="cls-3" d="M264.93,214.39c13.79-6.61,27.73-12.93,41.81-18.89"/>
      </g>
    </g>
  </g>
</svg>