<?xml version="1.0" encoding="UTF-8"?>
<svg id="_レイヤー_2" data-name="レイヤー 2" xmlns="http://www.w3.org/2000/svg" viewBox="0 0 31.65 31.65">
  <defs>
    <style>
      .cls-1 {
        fill: none;
        stroke: #595757;
        stroke-miterlimit: 10;
        stroke-width: .6px;
      }

      .cls-2 {
        fill: #595757;
      }
    </style>
  </defs>
  <g id="_menu" data-name="
menu">
    <g>
      <path class="cls-1" d="M21.86,30.13c-1.86.79-3.9,1.22-6.04,1.22s-4.19-.43-6.04-1.22c-1.86-.79-3.53-1.92-4.93-3.33-1.4-1.4-2.54-3.08-3.33-4.93s-1.22-3.9-1.22-6.04.43-4.19,1.22-6.04c.79-1.86,1.92-3.53,3.33-4.93"/>
      <path class="cls-1" d="M9.78,1.52c1.86-.79,3.9-1.22,6.04-1.22s4.19.43,6.04,1.22c1.86.79,3.53,1.92,4.93,3.33,1.4,1.4,2.54,3.08,3.33,4.93.79,1.86,1.22,3.9,1.22,6.04s-.43,4.19-1.22,6.04-1.92,3.53-3.33,4.93"/>
      <path class="cls-2" d="M16.93,14.91l4.33-5.03h-1.03l-3.76,4.37-3-4.37h-3.46l4.54,6.6-4.54,5.27h1.03l3.97-4.61,3.17,4.61h3.46l-4.7-6.85h0ZM15.52,16.55l-.46-.66-3.66-5.23h1.57l2.95,4.22.46.66,3.84,5.49h-1.57l-3.13-4.48h0Z"/>
    </g>
  </g>
</svg>