<?xml version="1.0" encoding="UTF-8"?>
<svg id="_レイヤー_2" data-name="レイヤー 2" xmlns="http://www.w3.org/2000/svg" viewBox="0 0 32.1 32.1">
  <defs>
    <style>
      .cls-1 {
        fill: none;
        stroke: #595757;
        stroke-miterlimit: 10;
        stroke-width: .6px;
      }

      .cls-2 {
        fill: #fff;
      }

      .cls-3 {
        fill: #595757;
      }
    </style>
  </defs>
  <g id="_menu" data-name="
menu">
    <g>
      <path class="cls-1" d="M22.18,30.57c-1.88.8-3.96,1.24-6.13,1.24s-4.25-.44-6.13-1.24c-1.88-.8-3.58-1.95-5.01-3.38-1.43-1.43-2.58-3.12-3.38-5.01-.8-1.88-1.24-3.96-1.24-6.13s.44-4.25,1.24-6.13c.8-1.88,1.95-3.58,3.38-5.01"/>
      <path class="cls-1" d="M9.92,1.54c1.88-.8,3.96-1.24,6.13-1.24s4.25.44,6.13,1.24c1.88.8,3.58,1.95,5.01,3.38,1.43,1.43,2.58,3.12,3.38,5.01s1.24,3.96,1.24,6.13-.44,4.25-1.24,6.13-1.95,3.58-3.38,5.01"/>
      <g>
        <path class="cls-3" d="M24.54,15.39c0-3.8-3.81-6.89-8.49-6.89s-8.49,3.09-8.49,6.89c0,3.4,3.02,6.26,7.1,6.79.28.06.65.18.75.42.09.21.06.55.03.77,0,0-.1.6-.12.73-.04.21-.17.84.74.46.91-.38,4.89-2.88,6.67-4.93h0c1.23-1.35,1.82-2.72,1.82-4.24"/>
        <g>
          <path class="cls-2" d="M14.33,13.55h-.6c-.09,0-.17.07-.17.17v3.7c0,.09.07.16.17.16h.6c.09,0,.17-.07.17-.16v-3.7c0-.09-.07-.17-.17-.17"/>
          <path class="cls-2" d="M18.43,13.55h-.6c-.09,0-.17.07-.17.17v2.2l-1.69-2.29s0-.01-.01-.02c0,0,0,0,0,0,0,0,0,0,0-.01,0,0,0,0,0,0,0,0,0,0,0,0,0,0,0,0,0,0,0,0,0,0,0,0,0,0,0,0,0,0,0,0,0,0,0,0,0,0,0,0,0,0,0,0,0,0,0,0,0,0,0,0,0,0,0,0,0,0,0,0,0,0,0,0,0,0,0,0,0,0,0,0,0,0,0,0,0,0,0,0,0,0,0,0,0,0,0,0,0,0,0,0,0,0,0,0h-.6c-.09,0-.17.07-.17.17v3.7c0,.09.07.16.17.16h.6c.09,0,.17-.07.17-.16v-2.2l1.7,2.29s.03.03.04.04c0,0,0,0,0,0,0,0,0,0,.01,0,0,0,0,0,0,0,0,0,0,0,0,0,0,0,0,0,0,0,0,0,0,0,0,0,0,0,0,0,.01,0,0,0,0,0,0,0,.01,0,.03,0,.04,0h.6c.09,0,.17-.07.17-.16v-3.7c0-.09-.07-.17-.17-.17"/>
          <path class="cls-2" d="M12.89,16.65h-1.62v-2.94c0-.09-.07-.17-.17-.17h-.6c-.09,0-.17.07-.17.17v3.7h0s.02.08.05.11c0,0,0,0,0,0,0,0,0,0,0,0,.03.03.07.05.11.05h2.38c.09,0,.17-.07.17-.17v-.6c0-.09-.07-.17-.17-.17"/>
          <path class="cls-2" d="M21.71,14.48c.09,0,.17-.07.17-.17v-.6c0-.09-.07-.17-.17-.17h-2.38s-.08.02-.11.05c0,0,0,0,0,0,0,0,0,0,0,0-.03.03-.05.07-.05.11h0v3.7h0s.02.08.05.11c0,0,0,0,0,0,0,0,0,0,0,0,.03.03.07.05.11.05h2.38c.09,0,.17-.07.17-.17v-.6c0-.09-.07-.17-.17-.17h-1.62v-.63h1.62c.09,0,.17-.07.17-.17v-.6c0-.09-.07-.17-.17-.17h-1.62v-.62h1.62Z"/>
        </g>
      </g>
    </g>
  </g>
</svg>