<?xml version="1.0" encoding="UTF-8"?>
<svg id="_レイヤー_2" data-name="レイヤー 2" xmlns="http://www.w3.org/2000/svg" viewBox="0 0 70.85 70.85">
  <defs>
    <style>
      .cls-1 {
        stroke-width: .2px;
      }

      .cls-1, .cls-2 {
        stroke: #e67057;
      }

      .cls-1, .cls-2, .cls-3 {
        fill: none;
      }

      .cls-1, .cls-3 {
        stroke-miterlimit: 10;
      }

      .cls-4 {
        fill: #fff;
        opacity: .8;
      }

      .cls-5 {
        fill: #e67057;
      }

      .cls-2 {
        stroke-linejoin: round;
        stroke-width: 1.59px;
      }

      .cls-2, .cls-3 {
        stroke-linecap: round;
      }

      .cls-3 {
        stroke: #595757;
        stroke-width: .85px;
      }
    </style>
  </defs>
  <g id="_menu" data-name="
menu">
    <g>
      <path class="cls-4" d="M69.71,36.55l-9.52,4.53c-.69.33-.93,1.2-.49,1.83l5.98,8.68c.6.87-.08,2.04-1.13,1.95l-10.51-.85c-.77-.06-1.41.58-1.34,1.34l.85,10.51c.08,1.05-1.09,1.72-1.95,1.13l-8.68-5.98c-.63-.44-1.5-.2-1.83.49l-4.53,9.52c-.45.95-1.8.95-2.25,0l-4.53-9.52c-.33-.69-1.2-.93-1.83-.49l-8.68,5.98c-.87.6-2.04-.08-1.95-1.13l.85-10.51c.06-.77-.58-1.41-1.34-1.34l-10.51.85c-1.05.08-1.72-1.09-1.13-1.95l5.98-8.68c.44-.63.2-1.5-.49-1.83l-9.52-4.53c-.95-.45-.95-1.8,0-2.25l9.52-4.53c.69-.33.93-1.2.49-1.83l-5.98-8.68c-.6-.87.08-2.04,1.13-1.95l10.51.85c.77.06,1.41-.58,1.34-1.34l-.85-10.51c-.08-1.05,1.09-1.72,1.95-1.13l8.68,5.98c.63.44,1.5.2,1.83-.49l4.53-9.52c.45-.95,1.8-.95,2.25,0l4.53,9.52c.33.69,1.2.93,1.83.49l8.68-5.98c.87-.6,2.04.08,1.95,1.13l-.85,10.51c-.06.77.58,1.41,1.34,1.34l10.51-.85c1.05-.08,1.72,1.09,1.13,1.95l-5.98,8.68c-.44.63-.2,1.5.49,1.83l9.52,4.53c.95.45.95,1.8,0,2.25Z"/>
      <path class="cls-3" d="M56.67,52.91l-2.63-.21c-.19-.02-.38.01-.54.08s-.32.16-.44.29-.22.27-.29.44-.09.35-.08.54l.21,2.63.21,2.63.21,2.63.21,2.63c.02.26-.04.5-.15.7s-.28.37-.47.48-.42.17-.65.17-.47-.07-.68-.22l-2.17-1.5-2.17-1.5-2.17-1.5-2.17-1.5c-.16-.11-.33-.18-.51-.2s-.35-.02-.52.03-.33.13-.47.24-.25.26-.34.43l-1.13,2.38-1.13,2.38-1.13,2.38-1.13,2.38c-.11.24-.28.41-.48.53s-.42.18-.65.18-.45-.06-.65-.18-.37-.3-.48-.53l-1.13-2.38-1.13-2.38-1.13-2.38-1.13-2.38c-.08-.17-.2-.32-.34-.43s-.3-.19-.47-.24-.35-.06-.52-.03-.35.1-.51.2l-2.17,1.5-2.17,1.5-2.17,1.5-2.17,1.5c-.22.15-.45.22-.68.22s-.45-.06-.65-.17-.36-.28-.47-.48-.17-.44-.15-.7l.21-2.63.21-2.63.21-2.63.21-2.63c.02-.19-.01-.38-.08-.54s-.16-.32-.29-.44-.27-.22-.44-.29-.35-.09-.54-.08l-2.63.21-2.63.21-2.63.21-2.63.21c-.26.02-.5-.04-.7-.15s-.37-.28-.48-.47-.17-.42-.17-.65.07-.47.22-.68l1.5-2.17,1.5-2.17,1.5-2.17,1.5-2.17c.11-.16.18-.33.2-.51s.02-.35-.03-.52-.13-.33-.24-.47-.26-.25-.43-.34l-2.38-1.13-2.38-1.13-2.38-1.13-2.38-1.13c-.24-.11-.41-.28-.53-.48s-.18-.42-.18-.65.06-.45.18-.65.3-.37.53-.48l2.38-1.13,2.38-1.13,2.38-1.13,2.38-1.13c.17-.08.32-.2.43-.34s.19-.3.24-.47.06-.35.03-.52-.1-.35-.2-.51l-1.5-2.17-1.5-2.17-1.5-2.17-1.5-2.17c-.15-.22-.22-.45-.22-.68s.06-.45.17-.65.28-.36.48-.47.44-.17.7-.15l2.63.21,2.63.21,2.63.21,2.63.21c.19.02.38-.01.54-.08s.32-.16.44-.29.22-.27.29-.44.09-.35.08-.54l-.21-2.63"/>
      <path class="cls-3" d="M17.51,8.92l-.21-2.63c-.02-.26.04-.5.15-.7s.28-.37.47-.48.42-.17.65-.17.47.07.68.22l2.17,1.5,2.17,1.5,2.17,1.5,2.17,1.5c.16.11.33.18.51.2s.35.02.52-.03.33-.13.47-.24.25-.26.34-.43l1.13-2.38,1.13-2.38,1.13-2.38,1.13-2.38c.11-.24.28-.41.48-.53s.42-.18.65-.18.45.06.65.18.37.3.48.53l1.13,2.38,1.13,2.38,1.13,2.38,1.13,2.38c.08.17.2.32.34.43s.3.19.47.24.35.06.52.03.35-.1.51-.2l2.17-1.5,2.17-1.5,2.17-1.5,2.17-1.5c.22-.15.45-.22.68-.22s.45.06.65.17.36.28.47.48.17.44.15.7l-.21,2.63-.21,2.63-.21,2.63-.21,2.63c-.02.19.01.38.08.54s.16.32.29.44.27.22.44.29.35.09.54.08l2.63-.21,2.63-.21,2.63-.21,2.63-.21c.26-.02.5.04.7.15s.37.28.48.47.17.42.17.65-.07.47-.22.68l-1.5,2.17-1.5,2.17-1.5,2.17-1.5,2.17c-.11.16-.18.33-.2.51s-.02.35.03.52.13.33.24.47.26.25.43.34l2.38,1.13,2.38,1.13,2.38,1.13,2.38,1.13c.24.11.41.28.53.48s.18.42.18.65-.06.45-.18.65-.3.37-.53.48l-2.38,1.13-2.38,1.13-2.38,1.13-2.38,1.13c-.17.08-.32.2-.43.34s-.19.3-.24.47-.06.35-.03.52.1.35.2.51l1.5,2.17,1.5,2.17,1.5,2.17,1.5,2.17c.15.22.22.45.22.68s-.06.45-.17.65-.28.36-.48.47-.44.17-.7.15l-2.63-.21"/>
      <path class="cls-5" d="M22.97,23.88c0-.2-.17-.36-.38-.34l-3.8.35c-.87.1-1.54.8-1.54,1.7v5.69c0,.87.67,1.61,1.54,1.7l3.8.35c.2.02.38-.14.38-.34v-9.1Z"/>
      <path class="cls-5" d="M33.44,17.36l-7.58,5.68c-.25.2-.39.5-.39.82v9.12c0,.32.14.62.39.82l7.58,5.68c.61.51,1.54.06,1.54-.74v-20.65c-.03-.8-.93-1.25-1.54-.74Z"/>
      <g>
        <g>
          <path class="cls-5" d="M30.38,44.26c.66,0,1.27.09,1.82.27.55.18,1.02.45,1.42.79.4.34.71.77.92,1.27s.33,1.07.33,1.7-.11,1.2-.33,1.7-.53.93-.92,1.27c-.4.34-.87.61-1.42.79s-1.16.27-1.82.27-1.27-.09-1.82-.27-1.02-.45-1.42-.79c-.4-.34-.71-.77-.92-1.27-.22-.5-.33-1.07-.33-1.7s.11-1.2.33-1.7c.22-.5.53-.93.92-1.27.4-.34.87-.61,1.42-.79.55-.18,1.15-.27,1.82-.27ZM30.38,44.68c-.48,0-.9.1-1.26.29-.35.19-.65.46-.88.79-.23.34-.4.72-.51,1.15-.11.43-.16.89-.16,1.37s.05.93.16,1.37c.11.44.28.82.51,1.16.23.34.52.6.88.79.35.19.77.29,1.26.29s.9-.1,1.26-.29c.35-.19.65-.46.88-.79.23-.33.4-.72.51-1.16.11-.44.16-.89.16-1.37s-.05-.94-.16-1.37c-.11-.43-.28-.82-.51-1.15-.23-.33-.52-.6-.88-.79-.35-.19-.77-.29-1.26-.29Z"/>
          <path class="cls-5" d="M36.1,51.85c.37-.05.65-.11.86-.18.21-.06.37-.16.48-.29.11-.13.18-.3.21-.51.03-.21.05-.49.05-.84l.05-4.55c-.1-.12-.22-.22-.34-.3-.13-.09-.26-.16-.4-.22s-.28-.11-.43-.15c-.15-.04-.3-.08-.44-.12v-.28c.2.02.41.03.61.05.21.02.41.02.61.02.54,0,1.07-.02,1.59-.07.78.97,1.57,1.91,2.37,2.83.8.92,1.57,1.87,2.31,2.86h.02v-.95c0-.38,0-.78-.02-1.19s-.03-.81-.05-1.19c-.02-.39-.06-.71-.1-.98-.03-.2-.08-.37-.16-.5-.07-.13-.17-.23-.29-.32-.12-.08-.25-.14-.4-.19-.15-.04-.32-.08-.51-.11v-.28c.27.02.55.03.82.05.28.02.55.02.82.02.55,0,1.09-.02,1.62-.07v.28c-.3.02-.55.06-.72.13s-.31.19-.4.35c-.09.16-.15.38-.18.66-.03.28-.04.63-.04,1.06v5.36h-.69c-.23-.36-.5-.74-.79-1.15-.3-.41-.61-.81-.93-1.22-.32-.41-.65-.81-.98-1.21-.33-.4-.65-.77-.95-1.12-.3-.35-.58-.67-.84-.96-.26-.29-.48-.53-.65-.72v3.96c0,.4.02.71.05.95.03.24.1.43.2.57.11.14.26.24.46.31.2.07.48.13.82.18v.28c-.29-.02-.57-.03-.85-.04-.28,0-.56-.01-.85-.01-.33,0-.65,0-.96.01-.31,0-.63.02-.96.04v-.28Z"/>
        </g>
        <g>
          <path class="cls-1" d="M30.38,44.26c.66,0,1.27.09,1.82.27.55.18,1.02.45,1.42.79.4.34.71.77.92,1.27s.33,1.07.33,1.7-.11,1.2-.33,1.7-.53.93-.92,1.27c-.4.34-.87.61-1.42.79s-1.16.27-1.82.27-1.27-.09-1.82-.27-1.02-.45-1.42-.79c-.4-.34-.71-.77-.92-1.27-.22-.5-.33-1.07-.33-1.7s.11-1.2.33-1.7c.22-.5.53-.93.92-1.27.4-.34.87-.61,1.42-.79.55-.18,1.15-.27,1.82-.27ZM30.38,44.68c-.48,0-.9.1-1.26.29-.35.19-.65.46-.88.79-.23.34-.4.72-.51,1.15-.11.43-.16.89-.16,1.37s.05.93.16,1.37c.11.44.28.82.51,1.16.23.34.52.6.88.79.35.19.77.29,1.26.29s.9-.1,1.26-.29c.35-.19.65-.46.88-.79.23-.33.4-.72.51-1.16.11-.44.16-.89.16-1.37s-.05-.94-.16-1.37c-.11-.43-.28-.82-.51-1.15-.23-.33-.52-.6-.88-.79-.35-.19-.77-.29-1.26-.29Z"/>
          <path class="cls-1" d="M36.1,51.85c.37-.05.65-.11.86-.18.21-.06.37-.16.48-.29.11-.13.18-.3.21-.51.03-.21.05-.49.05-.84l.05-4.55c-.1-.12-.22-.22-.34-.3-.13-.09-.26-.16-.4-.22s-.28-.11-.43-.15c-.15-.04-.3-.08-.44-.12v-.28c.2.02.41.03.61.05.21.02.41.02.61.02.54,0,1.07-.02,1.59-.07.78.97,1.57,1.91,2.37,2.83.8.92,1.57,1.87,2.31,2.86h.02v-.95c0-.38,0-.78-.02-1.19s-.03-.81-.05-1.19c-.02-.39-.06-.71-.1-.98-.03-.2-.08-.37-.16-.5-.07-.13-.17-.23-.29-.32-.12-.08-.25-.14-.4-.19-.15-.04-.32-.08-.51-.11v-.28c.27.02.55.03.82.05.28.02.55.02.82.02.55,0,1.09-.02,1.62-.07v.28c-.3.02-.55.06-.72.13s-.31.19-.4.35c-.09.16-.15.38-.18.66-.03.28-.04.63-.04,1.06v5.36h-.69c-.23-.36-.5-.74-.79-1.15-.3-.41-.61-.81-.93-1.22-.32-.41-.65-.81-.98-1.21-.33-.4-.65-.77-.95-1.12-.3-.35-.58-.67-.84-.96-.26-.29-.48-.53-.65-.72v3.96c0,.4.02.71.05.95.03.24.1.43.2.57.11.14.26.24.46.31.2.07.48.13.82.18v.28c-.29-.02-.57-.03-.85-.04-.28,0-.56-.01-.85-.01-.33,0-.65,0-.96.01-.31,0-.63.02-.96.04v-.28Z"/>
        </g>
      </g>
      <path class="cls-2" d="M38.5,31.71c.55-.98.88-2.14.88-3.36,0-1.16-.34-2.29-.88-3.3"/>
      <path class="cls-2" d="M42.89,34.79c1.28-1.8,2.01-4,2.01-6.38s-.73-4.58-2.01-6.38"/>
      <path class="cls-2" d="M47.27,37.69c1.98-2.59,3.14-5.83,3.14-9.34s-1.16-6.68-3.14-9.28"/>
    </g>
  </g>
</svg>