<?xml version="1.0" encoding="UTF-8"?>
<svg id="_レイヤー_2" data-name="レイヤー 2" xmlns="http://www.w3.org/2000/svg" viewBox="0 0 31.65 31.65">
  <defs>
    <style>
      .cls-1 {
        fill: none;
        stroke: #000;
        stroke-miterlimit: 10;
        stroke-width: .6px;
      }
    </style>
  </defs>
  <g id="_menu" data-name="
menu">
    <g>
      <path d="M19.41,16.73l.43-2.79h-2.67v-1.81c0-.76.37-1.51,1.57-1.51h1.22v-2.37s-1.1-.19-2.16-.19c-2.2,0-3.64,1.33-3.64,3.75v2.12h-2.45v2.79h2.45v6.74c.49.08.99.12,1.51.12s1.02-.04,1.51-.12v-6.74h2.25Z"/>
      <g>
        <path class="cls-1" d="M21.86,30.13c-1.86.79-3.9,1.22-6.04,1.22s-4.19-.43-6.04-1.22-3.53-1.92-4.93-3.33-2.54-3.08-3.33-4.93-1.22-3.9-1.22-6.04.43-4.19,1.22-6.04,1.92-3.53,3.33-4.93"/>
        <path class="cls-1" d="M9.78,1.52c1.86-.79,3.9-1.22,6.04-1.22s4.19.43,6.04,1.22c1.86.79,3.53,1.92,4.93,3.33,1.4,1.4,2.54,3.08,3.33,4.93s1.22,3.9,1.22,6.04-.43,4.19-1.22,6.04-1.92,3.53-3.33,4.93"/>
      </g>
    </g>
  </g>
</svg>