<?xml version="1.0" encoding="UTF-8"?>
<svg id="_レイヤー_2" data-name="レイヤー 2" xmlns="http://www.w3.org/2000/svg" viewBox="0 0 33.82 43.82">
  <defs>
    <style>
      .cls-1 {
        fill: #060200;
        opacity: .7;
      }

      .cls-2 {
        stroke: #ddad5b;
        stroke-width: .82px;
      }

      .cls-2, .cls-3 {
        fill: none;
        stroke-miterlimit: 10;
      }

      .cls-3 {
        stroke: #fff;
        stroke-width: .82px;
      }
    </style>
  </defs>
  <g id="Top">
    <g>
      <rect class="cls-1" x=".41" y=".41" width="33" height="43" rx="4.1" ry="4.1"/>
      <g>
        <g>
          <line class="cls-3" x1="9.41" y1="12.91" x2="25.41" y2="12.91"/>
          <line class="cls-3" x1="9.41" y1="21.91" x2="25.41" y2="21.91"/>
          <line class="cls-3" x1="9.41" y1="30.91" x2="25.41" y2="30.91"/>
        </g>
        <path class="cls-2" d="M33.41,33.61v5.7c0,.57-.11,1.1-.32,1.59s-.51.93-.88,1.3-.81.67-1.3.88-1.03.32-1.59.32H4.51c-.57,0-1.1-.11-1.59-.32s-.93-.51-1.3-.88-.67-.81-.88-1.3-.32-1.03-.32-1.59V15.91"/>
        <path class="cls-2" d="M.41,10.21v-5.7c0-.57.11-1.1.32-1.59s.51-.93.88-1.3.81-.67,1.3-.88,1.03-.32,1.59-.32h24.81c.57,0,1.1.11,1.59.32s.93.51,1.3.88.67.81.88,1.3.32,1.03.32,1.59v23.4"/>
      </g>
    </g>
  </g>
</svg>