<?xml version="1.0" encoding="UTF-8"?>
<svg id="_レイヤー_2" data-name="レイヤー 2" xmlns="http://www.w3.org/2000/svg" viewBox="0 0 104.95 60.56">
  <defs>
    <style>
      .cls-1 {
        fill: none;
        stroke: #fff;
        stroke-miterlimit: 10;
        stroke-width: .8px;
      }

      .cls-2 {
        fill: #deb167;
      }
    </style>
  </defs>
  <g id="About">
    <g>
      <g>
        <path class="cls-2" d="M21.65,7.58c.87.77.33,2.37.06,3.34-.4,1.45-.96,2.87-1.62,4.27-.5,1.01-.99,2.2-1.78,3.11-.71.83-2.06,1.16-1.36-.3.25-.28.44-3.76,1.08-3.94-.06.12-.16.98-.25,1.45.65-2.03,2.26-7.91-.69-8.14-1.18-.07-2.56.9-3.46,1.61-1.03.8-1.94,1.8-2.66,2.88,1.04-1.49,2.41-2.75,4.05-3.66.72-.4,1.69-.93,2.5-.63.9.41.74,1.25.88,1.93-.38-1.08-.39-2.25-2.09-1.8-1.4.44-2.67,1.43-3.68,2.41-1.76,1.74-3.09,4.11-3.45,6.52-.78,5.39,4.47,9,7.74,12.43-1.48-1.33-3.07-2.57-4.5-3.92,1.1,1.12,1.77,2.3,2.99,3.34,1.59,1.24,3.19,2.34,4.41,3.96,2.58,3.48,2.44,7.08.26,10.77l.68-.92c.5,1.29-3,4.37-3.82,5.04-2.32,1.99-5.79,3.45-8.94,3.09-4.53-.55-5.32-5.68-4.47-9.29.2-.85,2.03-6.27,3.61-4.92.65.55-.13,2.92-.16,3.71-.1.86-.05,1.72.04,2.57.17,1.5.48,3.24,1.58,4.36,1.3,1.4,3.22.72,4.64-.27,1.92-1.41,3.32-3.6,3.83-5.88.25-1.16.27-2.38-.04-3.54-.15-.43-.33-.81-.58-1.21-.17-.19-.57-.48-.59-.82.06.17.35.41.51.6-.2-.27-.38-.5-.54-.83.02.04-.29-.24-.33-.22-.24-.26-.5-.56-.69-.83l-1.49-1.67c-1.69-1.94-3.54-3.77-5.32-5.68-1.3-1.4-2.43-3.04-3.14-4.79-.18-.37-1.33-2.94-.62-3.19-.04.02.06.76.11.74-.1-.84-.07-1.78.09-2.76l-.16.54c-.31-1.6,1.01-3.86,1.75-5.19,1.08-1.94,2.69-3.67,4.57-4.92,1.97-1.28,4.02-1.61,6.32-1.49.91.02,1.8.1,2.61.4.98.34,1.47,1.04,2.12,1.74ZM4.38,40.15c-1.13,3.52-.9,7.62,2.42,9.62-2.5-1.51-3.36-6.42-2.42-9.62ZM9.72,21.08c-.06-.17-.09-.41-.21-.61l.21.61Z"/>
        <path class="cls-2" d="M49.22,19.13c.05,1.3-.93,2.08-1.49,3.06-.43.78-1.11,1.71-1.66,2.44-.45.59-1.12.69-1.41,1.28-.04.02-.06-.03-.06-.03-.09.18-.15.44-.4.72-.31.4-.4.73-.67,1.11-.48.65-.98.64-1.36,1.01l.04-.02c-.27.24-1.49,3.35-1.58,3.67-.44,1.03-.96,1.99-1.38,2.97-.37.81-1.08,2.67-2.06,3.01-1.08.38-2.73-1.18-3.29-1.91-.81-1.03-.09-.84.61-1.28.98-.64,1.47-2.27,1.93-3.26.59-1.33,1.06-2.71,1.64-4.08.24-.47.47-.95.59-1.47,0-.15-.04-.96.14-1.03,0,0,.02.19-.03.35l.13-.48c-.1.13-.04-.82,0-.88.06-.56.17-1.08.27-1.66.19-1.04.44-2.2.31-3.28-.03-.52-.31-2.47-1.24-1.95-.34.17-1.86,2.45-1.96,2.44-.06-.03.16-.4.1-.43-.24.47-.5,1-.71,1.56.06-.12.13-.19.21-.27-.25.43-2.13,6.55-2.29,7.09-.38,1.21-.6,2.45-.91,3.73-.18.65-.26,1.41-.54,2.04-.16.25-.4.43-.48.65-.27.82-.32,1.96-.49,2.9-.25,1.16-.42,2.39-.71,3.56-.2,1.14-.12,2.23-.11,3.4-.01.83-.1,1.59-.08,2.36,0-.15.04-.31.1-.43.12-.09.32,1.64.31,1.74l.3,2.14c.19,1.54.48,3.09.72,4.62.14.54.49,1.53.19,2.12-.67,1.26-2.45.18-3.12-.42-1.9-1.67-2.01-5.43-2.44-7.81-.29-1.55-.51-3.18-.42-4.77.07-.51.17-.94.19-1.48-.02-.04-.25-.99-.13-1.08.02.04.08.07.09.11-.03-.09-.02-.19-.02-.34-.09.47-.23-.65-.24-.69-.03-.52,0-1.02-.02-1.5.02-.93-.03-1.79-.14-2.68-.03-.38-.19-4.41.29-4.49.09-.03.02.34.08.36.04-.45.04-.89.04-1.33-.01.1-.03.21-.1.28,0,0,.07-5.09.09-5.63.05-.99-.03-1.94-.03-2.96-.02-.19.07-.66,0-.88-.06-.17-.32-.18-.38-.35-.49-1.1-.18-2.52,1.44-2.65.82-.09,1.57.32,2.12.86.66.6.54.98.64,1.68l.06-.26c.18-.06.46,1.88.18,1.94-.04.02-.09-.7-.14-.83.07,1.34.08,2.65.08,3.97l-.02-.04v.83c0,.15,0,.34-.04.5-.01,3.41.1,9.17.15,9.89.12-.82.27-1.66.45-2.45-.21.71-.37,1.25-.37,1.25,0,0,2.02-8.6,2.24-9.41.79-2.91,1.55-5.9,2.6-8.8.47-1.24,1.24-3.5,2.75-3.94,2.48-.68,3.99,1.76,4.56,3.51-.03-.23-.12-.64-.02-.63.79.11.89,3.68.89,4.26,0,1.6-.25,3.3-.58,4.93.73-.79,1.34-1.64,1.99-2.5.59-.75,1.56-1.13,2.22-1.71-.05.02-.15,0-.17-.04-.26-.3,1.83-1.81,2.09-1.95.1-.13.33-.21.49-.32ZM27.26,31.87c.21.32-.03,2.35-.04,2.6-.09,2.03-.37,4.12-.31,6.15.07,2.22,0,4.58.25,6.88-.13-1.66-.12-3.37-.03-4.96.14-1.9.2-3.87.17-5.81-.02-.92-.04-1.84-.02-2.77.04-.6.22-1.39.06-1.97l-.02-.04s-.02-.04-.08-.07ZM27.22,47.81q-.03.06-.02.1t.02-.1ZM29.82,34.13c.03-.5,0-1.02-.05-1.59-.01.54.04,1.11.05,1.59ZM29.82,31.99s.04-.02.03-.06l-.03.06ZM29.97,25.7c.03-.06.06-.12.03-.2l-.03.2ZM30.05,25.04l-.04.45.04-.45ZM30.05,25.04c-.02-.19-.02-.34.01-.39v.39ZM32.72,25.61s.02.04-.01.1l.02.04c.01-.1.03-.21,0-.15ZM32.98,24.79l.43-1.51c-.18.5-.29,1.03-.43,1.51ZM42.87,25.55c-.1.13-.31.26-.31.4l.31-.4Z"/>
        <path class="cls-2" d="M59.27,18.48c-.38,1.35-.73,2.64-1.22,3.98-.49,1.49-.95,3.74-2.4,4.64-.34.17-2.2.33-2.25.06l.09-.03c-.42-.05.08.22-.6.02-.49-.12-.9-.41-1.31-.71-.72-.48-1.55-.82-2-1.54-.12-.2-.76-1.73-.4-1.86.09-.03.08.22.12.2l-.14-.83c-.01.1,0,.15-.07.22-.19.02-.42-3.36-.43-3.65.04-1.04-.15-2.14.57-2.98.52-.67,1.4-.88,2.38-.83.4,0,1.59.08,1.74.51.09.26-.12.38-.21.56.03-.06.12-.09.16-.11.16.04-.19,1.19-.29,1.17-.09.03-.03-.23-.03-.38-.38,1.64-.56,3.41-.57,5.12.03-.64.29-3.46.44-3.47.15,0-1.12,6.29.67,6.49.84.09,1.67-1.41,2.02-1.98.62-.95,1.5-2.18,1.87-3.14-.06.12-.15.15-.28.2-.26-.15.98-3.8,1.29-4.21.24-.33.8-.72,1.09-.19.47.76,0,2-.25,2.72ZM49.34,12.71c-.09-.11-.7-1.41-.13-1.37-.05-.13.26-.97.19-.31.22-.66.37-1.4.45-2.16l-.26.97c.13-.92.19-2.75.13-3.07-.02-.04-.24-.4-.18-.52-1.06-.02-.57-.77-.28-1.22-.09.03-.13.05-.21-.02-.24-.11.25-.43.37-.52.54-.48,1.39-.63,2.08-.53.6.13,1.28.62,1.64,1.08.38.5.16,1.31-.12,1.8-.12.24-.39.48-.55.73-.16.4.02.77-.1,1.15-.06.26-.3.45-.36.71-.13.19-.09.32.09.41-.15.15-.25.28-.34.46-.21.85-.34,1.34-.74,1.92.39-.48.61-.85.86-1.57.21-.56.5-1,.96-1.41-.28.63-.17,1.23-.59,1.77-.43.49-.15-.29-.55.44,0,0,.25-.14.15,0-.28.49-.49,1.19-.95,1.6-.24.18-.36.42-.72.4-.37-.06-.3-.28-.44-.38,0,0-.41-.3-.42-.34ZM49.25,11.33s.06.03.06.03q.03-.06.01-.1t-.07.07ZM49.57,9.95c-.03.21-.09.32-.09.32l.09-.32ZM52.52,23.63l.03.38v-.29s-.02-.04-.02-.04q.01-.1-.02-.04Z"/>
        <path class="cls-2" d="M74.01,16.86c-.84,2.92-2.24,5.95-3.84,8.56-.94,1.5-2.29,3.09-4.16,3.51-.57.1-1.17.12-1.66-.15-.36-.17-2.16-1.43-2.03-1.77,0,0,.33.37.39.4l-.48-.66c.09.26-.59-.52-.65-.7-.29-.53-.5-1.14-.7-1.7-.34-1.1-.52-2.2-.84-3.26-.29-.97-.39-1.96-.39-2.98-.03-.23-.06-2.9.22-2.95.04-.02.05.42.09.41.03-.5,0-1.02.05-1.58l-.1.28c-.06-.03.44-3.76.51-4.13.32-1.38.82-2.68,1.67-3.85.56-.83,1.32-1.54,2.36-1.75,1.27-.25,1.87.17,2.64.92.71.73,1.25,1.27,1.56,2.42.18.67.4,1.56.31,2.33-.1.72-1.2,2.03-2.09,1.8-.72-.19-.36-.6-.26-1.03l-.16.25s-.15-2.43-.06-2.46c.04-.02.2,1,.22,1.04-.02-.63-.79-4.69-1.9-2.98-.43.64-.47,1.68-.59,2.35-.16,1.27-.22,2.52-.25,3.74.05-1.58.19-3.18.56-4.73.1-.57.23-1.2.63-1.64.03-.06.43-.05.36.02-.03.06-.27-.05-.33.07-.7,1.32-.84,2.78-.98,4.24-.25,3.16-.23,6.37.3,9.44.26,1.47.6,3.15,1.39,4.38.2.27.44.67.81.74.94.25,1.82-1.13,2.3-1.78.7-1.02,1.49-2.08,1.97-3.13-.1.13-.21.27-.33.36-.09.03.4-1.31.46-1.43.3-.59.53-1.21.77-1.83.41-1.12.87-2.25,1.27-3.42.21-.56,1.27-4.98,2.47-4.43.93.5-.1,2.72-.31,3.42-.43,1.22-.87,2.4-1.19,3.63ZM60.92,14.44c-.07.95-.39,1.89-.22,2.66-.03-.23.28-.63.31-.99.04-.45,0-.98-.05-1.44-.02-.04,0-.15-.03-.23ZM60.92,19.31c-.19.17-.12.38-.04.6-.03-.09,0-.29,0-.44l.04-.16ZM60.94,20.08c0,.58.2,1.15.43,1.65-.17-.48-.37-1.04-.29-1.41.06-.12-.14-.24-.14-.24ZM63.77,15.09c-.01.1.02.19.05.28t.01-.1l-.06-.17ZM63.84,15.85c.02.77.04,1.55.1,2.3l-.1-2.3Z"/>
        <path class="cls-2" d="M91.54,5.39l-.76,2.27-1.35,3.89c-.35,1-.86,2.01-1.21,3.01-.37,1.1-.63,2.22-1.1,3.31-.52,1.11-1.15,2.3-2.03,3.25-.62.66-1.33.95-2.21,1.02-1.27.11-2.55-.23-3.61-.83-.32-.18-.62-.32-.78-.65-.14-.24-.29-.53-.39-.84-.23-.5-.19-.96-.28-1.51-.11-.59-.02-1.21-.13-1.81-.12-.64-.14-1.26-.25-1.86-.14-.54-.43-1.07-.47-1.64-.03-.38.12-.82.11-1.26-.04.31-.18.65-.14.88-.01.39.02.77,0,1.12-.01.39.05.71.04,1.11-.04.45-.1.86,0,1.31.09.41.27.78.37,1.19.05.42.06.76.2,1.15.04.13.23.36.26.45.06.17.05.42.12.64.14.39.36.75.56,1.17-1.14-.96-1.44-2.22-1.67-3.6-.23-1.38-.5-2.7-.62-4.07-.32-2.76.01-5.7,1-8.34.76-2.27,2.13-4.26,4.7-4.67.96-.14,2.08-.1,2.92.44.92.6,1.24,1.66,1.26,2.72.01,1.9-1,3.76-1.99,5.38-.42.68-.88,1.38-1.41,2.01-.36.42-.79.76-1.22,1.11l-.67.53c-.28.2-.34.17-.39.48-.07.51.22.9.28,1.36.11.6.16,1.16.22,1.77.14,1.12.25,2.59.9,3.58,1.27,2.04,3.83-2.71,4.29-3.55.31-.55.56-1.12.83-1.65.13-.34.33-.65.41-.97,0,0,.01-.25-.02-.33.25-1.01.69-2.05,1.09-3.06.49-1.19.87-2.4,1.28-3.67.21-.71.58-2.64,1.71-1.72l.02.04q.06.03.04-.02c.3.28.24.55.11.89ZM80.38,10.48c1.18-1.24,2.12-2.7,2.75-4.23l.43-1.22c.06-.26.24-.47.24-.76-.03-.23-.18-.37-.23-.65l-.14-.97c-.11-.45-.68-1.51-1.31-1.15-.28.2-.46.7-.56.98l-.44,1.32c-.47,1.67-.44,3.32-.63,4.95,0,0,.02.04,0,.15-.07.51-.04,1.04-.1,1.59Z"/>
      </g>
      <path class="cls-1" d="M35.11,45.02c24.59-11.42,41.99-16.52,69.79-19.81"/>
      <path class="cls-1" d="M.17,60.2c7.26-3.48,14.61-6.81,22.03-9.95"/>
    </g>
  </g>
</svg>